<svg width="231" height="72" viewBox="0 0 231 72" fill="none" xmlns="http://www.w3.org/2000/svg">
<path fill-rule="evenodd" clip-rule="evenodd" d="M44.1349 65.0891H5.96484L6.16401 7.17502H26.1519C36.6628 7.17502 41.5353 12.0709 41.7884 16.9584H41.9867C59.0648 16.9584 69.9498 28.4565 70.178 40.2208C70.4059 51.9728 59.9962 63.9925 44.1349 65.0891ZM19.3353 56.2048V54.867H19.335L19.2055 16.9584H35.9227C35.2938 12.599 31.5661 8.26969 23.454 8.26969L15.6239 8.28395C15.5493 24.6684 15.5103 46.7582 15.5082 63.4973H37.7498C52.3813 62.8674 61.9945 51.4249 61.9011 40.2144C61.8172 30.1363 53.8348 20.2465 41.7045 18.5676C41.2012 21.7891 38.6891 24.7647 34.4701 26.0333C47.9522 26.5614 52.6318 33.9762 52.6318 40.5997C52.6318 50.1489 46.3539 56.2048 31.3135 56.2048H19.3353ZM30.6238 25.7512C33.9748 25.1979 36.0163 21.9011 36.0187 18.3171L28.7721 18.3178L28.891 47.6266V54.8649C38.7012 54.7033 44.1601 48.4005 44.1601 40.6764C44.1598 33.9413 40.796 27.4624 30.6825 27.2722L30.6238 25.7512Z" fill="white"/>
<path fill-rule="evenodd" clip-rule="evenodd" d="M138.804 25.5416C138.429 26.4584 138.241 27.4516 138.241 28.5212C138.241 29.5908 138.429 30.5909 138.804 31.5216C139.193 32.4384 139.727 33.2441 140.408 33.9386C141.103 34.6193 141.908 35.1541 142.825 35.5431C143.756 35.9181 144.756 36.1056 145.826 36.1056C146.895 36.1056 147.888 35.9181 148.805 35.5431C149.736 35.1541 150.542 34.6193 151.222 33.9386C151.917 33.2441 152.452 32.4384 152.827 31.5216C153.216 30.5909 153.41 29.5908 153.41 28.5212C153.41 27.4516 153.216 26.4584 152.827 25.5416C152.452 24.6109 151.917 23.8052 151.222 23.1245C150.542 22.43 149.736 21.8952 148.805 21.5201C147.888 21.1312 146.895 20.9367 145.826 20.9367C144.756 20.9367 143.756 21.1312 142.825 21.5201C141.908 21.8952 141.103 22.43 140.408 23.1245C139.727 23.8052 139.193 24.6109 138.804 25.5416ZM140.575 32.2509C140.075 31.1813 139.825 29.9381 139.825 28.5212C139.825 27.1043 140.075 25.868 140.575 24.8123C141.089 23.7427 141.79 22.9162 142.679 22.3328C143.582 21.7354 144.631 21.4368 145.826 21.4368C147.02 21.4368 148.069 21.7354 148.972 22.3328C149.875 22.9301 150.576 23.7635 151.076 24.8331C151.576 25.8888 151.826 27.1182 151.826 28.5212C151.826 29.9242 151.576 31.1605 151.076 32.2301C150.576 33.2997 149.875 34.1331 148.972 34.7304C148.069 35.3139 147.02 35.6056 145.826 35.6056C144.631 35.6056 143.582 35.3139 142.679 34.7304C141.776 34.1331 141.075 33.3066 140.575 32.2509Z" fill="white"/>
<path fill-rule="evenodd" clip-rule="evenodd" d="M81.2249 35.8139V21.2284H84.1212C85.6214 21.2284 86.7883 21.541 87.6217 22.1661C88.4552 22.7912 88.8719 23.6593 88.8719 24.7706C88.8719 25.5902 88.6288 26.2917 88.1426 26.8751C87.6564 27.4446 86.9758 27.8336 86.1007 28.0419V28.167C87.2953 28.3198 88.226 28.7365 88.8927 29.4171C89.5734 30.0839 89.9137 30.9313 89.9137 31.9592C89.9137 33.1677 89.4484 34.1123 88.5177 34.7929C87.587 35.4736 86.2812 35.8139 84.6004 35.8139H81.2249ZM84.142 21.7285H82.6418V27.9794H84.1212C86.316 27.9794 87.4134 26.9376 87.4134 24.854C87.4134 22.7703 86.3229 21.7285 84.142 21.7285ZM84.6004 28.4795H82.6418V35.3139H84.6004C87.1425 35.3139 88.4135 34.1748 88.4135 31.8967C88.4135 29.6186 87.1425 28.4795 84.6004 28.4795Z" fill="white"/>
<path d="M98.0438 35.8139V21.2284H104.399V22.2494L100.753 21.7702C100.114 21.6868 99.683 21.6452 99.4607 21.6452V28.0003C99.6413 28.0003 100.072 27.9794 100.753 27.9378L104.17 27.7294V28.6879L100.753 28.4795C100.072 28.4378 99.6413 28.417 99.4607 28.417V35.3972C99.7108 35.3972 100.148 35.3555 100.773 35.2722L104.461 34.7929V35.8139H98.0438Z" fill="white"/>
<path d="M114.204 21.2284H112.787V35.8139H118.913V34.7513L115.454 35.2722C114.885 35.3555 114.468 35.3972 114.204 35.3972V21.2284Z" fill="white"/>
<path d="M126.35 21.2284H127.767V35.3972C128.031 35.3972 128.448 35.3555 129.018 35.2722L132.476 34.7513V35.8139H126.35V21.2284Z" fill="white"/>
<path fill-rule="evenodd" clip-rule="evenodd" d="M81.2249 60.1926V45.6071H85.8089C87.4203 45.6071 88.8233 45.9127 90.0179 46.5239C91.2125 47.1351 92.1432 47.9894 92.81 49.0867C93.4768 50.1702 93.8101 51.4413 93.8101 52.8998C93.8101 54.3584 93.4768 55.6363 92.81 56.7337C92.1432 57.8172 91.2125 58.6646 90.0179 59.2758C88.8233 59.887 87.4203 60.1926 85.8089 60.1926H81.2249ZM85.8089 46.1071H82.6418V59.6925H85.8089C87.8231 59.6925 89.3928 59.0952 90.518 57.9006C91.657 56.7059 92.2266 55.039 92.2266 52.8998C92.2266 50.7606 91.657 49.0937 90.518 47.8991C89.3928 46.7044 87.8231 46.1071 85.8089 46.1071Z" fill="white"/>
<path d="M103.571 45.6071H102.154V60.1926H103.571V45.6071Z" fill="white"/>
<path fill-rule="evenodd" clip-rule="evenodd" d="M116.388 45.6071H117.68L123.285 60.1926H121.764L119.18 53.3582H114.45L112.304 60.1926H110.783L116.388 45.6071ZM116.534 46.6905L114.596 52.8581H118.993L116.659 46.6905H116.534Z" fill="white"/>
<path d="M142.938 60.1926H144.355V45.6071H142.855L137.937 55.0668H137.812L131.249 45.3153H130.832L130.311 60.1926H131.728L131.269 47.9616H131.395L137.125 56.4837H137.77L142.813 46.8156H142.938V60.1926Z" fill="white"/>
<path fill-rule="evenodd" clip-rule="evenodd" d="M152.688 52.8998C152.688 51.8302 152.876 50.837 153.251 49.9202C153.64 48.9895 154.175 48.1838 154.855 47.5032C155.55 46.8086 156.355 46.2738 157.272 45.8988C158.203 45.5098 159.203 45.3153 160.273 45.3153C161.342 45.3153 162.335 45.5098 163.252 45.8988C164.183 46.2738 164.989 46.8086 165.669 47.5032C166.364 48.1838 166.899 48.9895 167.274 49.9202C167.663 50.837 167.857 51.8302 167.857 52.8998C167.857 53.9694 167.663 54.9696 167.274 55.9002C166.899 56.8171 166.364 57.6227 165.669 58.3173C164.989 58.9979 164.183 59.5327 163.252 59.9217C162.335 60.2967 161.342 60.4843 160.273 60.4843C159.203 60.4843 158.203 60.2967 157.272 59.9217C156.355 59.5327 155.55 58.9979 154.855 58.3173C154.175 57.6227 153.64 56.8171 153.251 55.9002C152.876 54.9696 152.688 53.9694 152.688 52.8998ZM154.272 52.8998C154.272 54.3167 154.522 55.5599 155.022 56.6295C155.522 57.6852 156.223 58.5117 157.126 59.1091C158.029 59.6925 159.078 59.9842 160.273 59.9842C161.467 59.9842 162.516 59.6925 163.419 59.1091C164.322 58.5117 165.023 57.6783 165.523 56.6087C166.024 55.5391 166.274 54.3028 166.274 52.8998C166.274 51.4968 166.024 50.2675 165.523 49.2118C165.023 48.1422 164.322 47.3087 163.419 46.7114C162.516 46.1141 161.467 45.8154 160.273 45.8154C159.078 45.8154 158.029 46.1141 157.126 46.7114C156.237 47.2948 155.536 48.1213 155.022 49.1909C154.522 50.2466 154.272 51.4829 154.272 52.8998Z" fill="white"/>
<path d="M176.394 45.3153L175.873 60.1926H177.29L176.831 47.8157H176.956L187.437 60.4843H187.687L188.208 45.6071H186.791L187.25 57.9839H187.124L176.644 45.3153H176.394Z" fill="white"/>
<path fill-rule="evenodd" clip-rule="evenodd" d="M197.277 45.6071H201.861C203.473 45.6071 204.876 45.9127 206.07 46.5239C207.265 47.1351 208.196 47.9894 208.862 49.0867C209.529 50.1702 209.863 51.4413 209.863 52.8998C209.863 54.3584 209.529 55.6363 208.862 56.7337C208.196 57.8172 207.265 58.6646 206.07 59.2758C204.876 59.887 203.473 60.1926 201.861 60.1926H197.277V45.6071ZM201.861 46.1071H198.694V59.6925H201.861C203.876 59.6925 205.445 59.0952 206.57 57.9006C207.709 56.7059 208.279 55.039 208.279 52.8998C208.279 50.7606 207.709 49.0937 206.57 47.8991C205.445 46.7044 203.876 46.1071 201.861 46.1071Z" fill="white"/>
<path d="M217.186 58.484H217.061L216.936 59.7342C217.616 59.9564 218.332 60.137 219.082 60.2759C219.832 60.4148 220.485 60.4843 221.04 60.4843C221.915 60.4843 222.679 60.3176 223.332 59.9842C223.999 59.6508 224.513 59.1924 224.874 58.609C225.235 58.0117 225.416 57.3241 225.416 56.5462C225.416 55.6988 225.222 54.9973 224.833 54.4417C224.458 53.8722 223.971 53.386 223.374 52.9832C222.791 52.5803 222.186 52.1983 221.561 51.8371C221.02 51.5315 220.512 51.219 220.04 50.8995C219.568 50.5661 219.179 50.198 218.873 49.7952C218.582 49.3784 218.436 48.8853 218.436 48.3158C218.436 47.5518 218.707 46.9475 219.248 46.503C219.79 46.0446 220.506 45.8154 221.395 45.8154C222.631 45.8154 223.645 46.246 224.437 47.1073H224.562L224.666 45.9404C224.319 45.7598 223.825 45.614 223.187 45.5029C222.548 45.3778 221.95 45.3153 221.395 45.3153C220.144 45.3153 219.137 45.6418 218.373 46.2947C217.609 46.9336 217.227 47.781 217.227 48.8367C217.227 49.5451 217.401 50.1563 217.748 50.6703C218.095 51.1704 218.54 51.6149 219.082 52.0038C219.623 52.3789 220.193 52.7401 220.79 53.0873C221.652 53.5874 222.325 54.0528 222.811 54.4834C223.312 54.914 223.666 55.3377 223.874 55.7544C224.096 56.1711 224.207 56.6226 224.207 57.1088C224.207 57.9839 223.916 58.6854 223.332 59.2132C222.749 59.7272 221.985 59.9842 221.04 59.9842C220.374 59.9842 219.7 59.8522 219.019 59.5883C218.339 59.3244 217.727 58.9563 217.186 58.484Z" fill="white"/>
</svg>
