<svg width="17" height="18" viewBox="0 0 17 18" fill="none" xmlns="http://www.w3.org/2000/svg">
<path d="M9.28104 9.53007L1.78104 17.0301C1.64031 17.1708 1.44944 17.2499 1.25042 17.2499C1.05139 17.2499 0.860523 17.1708 0.719792 17.0301C0.579062 16.8893 0.5 16.6985 0.5 16.4994C0.5 16.3004 0.579062 16.1095 0.719792 15.9688L7.6901 8.99944L0.719792 2.03007C0.579062 1.88933 0.5 1.69846 0.5 1.49944C0.5 1.30042 0.579062 1.10955 0.719792 0.968815C0.860523 0.828085 1.05139 0.749023 1.25042 0.749023C1.44944 0.749023 1.64031 0.828085 1.78104 0.968815L9.28104 8.46881C9.35077 8.53847 9.40609 8.62119 9.44384 8.71224C9.48158 8.80328 9.50101 8.90088 9.50101 8.99944C9.50101 9.098 9.48158 9.1956 9.44384 9.28665C9.40609 9.37769 9.35077 9.46041 9.28104 9.53007ZM16.781 8.46881L9.28104 0.968815C9.14031 0.828085 8.94944 0.749023 8.75042 0.749023C8.55139 0.749023 8.36052 0.828085 8.21979 0.968815C8.07906 1.10955 8 1.30042 8 1.49944C8 1.69846 8.07906 1.88933 8.21979 2.03007L15.1901 8.99944L8.21979 15.9688C8.07906 16.1095 8 16.3004 8 16.4994C8 16.6985 8.07906 16.8893 8.21979 17.0301C8.36052 17.1708 8.55139 17.2499 8.75042 17.2499C8.94944 17.2499 9.14031 17.1708 9.28104 17.0301L16.781 9.53007C16.8508 9.46041 16.9061 9.37769 16.9438 9.28665C16.9816 9.1956 17.001 9.098 17.001 8.99944C17.001 8.90088 16.9816 8.80328 16.9438 8.71224C16.9061 8.62119 16.8508 8.53847 16.781 8.46881Z" fill="white"/>
</svg>
