<svg width="184" height="77" viewBox="0 0 184 77" fill="none" xmlns="http://www.w3.org/2000/svg">
<path fill-rule="evenodd" clip-rule="evenodd" d="M74.0684 45.8157V47.0959H85.5311C99.9244 47.0959 105.932 41.3007 105.932 32.1623C105.932 25.8239 101.454 18.7282 88.5519 18.2228C92.5893 17.0087 94.9933 14.1613 95.475 11.0784C107.083 12.685 114.722 22.1492 114.803 31.7936C114.892 42.5218 105.692 53.4719 91.6905 54.0746H70.406C70.408 38.0558 70.4453 16.9166 70.5167 1.23724L78.0098 1.22359C85.7729 1.22359 89.3402 5.36656 89.942 9.5384H73.9442L74.0681 45.8157H74.0684ZM85.3458 55.5979H97.8008C112.98 54.5485 122.941 43.046 122.723 31.7998C122.505 20.5417 112.088 9.5384 95.745 9.5384H95.5553C95.3131 4.86119 90.6502 0.176025 80.5917 0.176025H61.4639L61.2733 55.5979H85.3458ZM90.0339 10.8387C90.0316 14.2684 88.0779 17.4234 84.8711 17.9528L84.9273 19.4084C94.6056 19.5904 97.8247 25.7905 97.8249 32.2358C97.8249 39.6274 92.6009 45.659 83.2129 45.8137V38.8869L83.0992 10.8393L90.0339 10.8387Z" fill="white"/>
<g clip-path="url(#clip0_742_588)">
<path d="M11.6824 73.1321C11.6853 73.5781 11.6004 74.0203 11.4324 74.4335C11.2703 74.8322 11.0346 75.1967 10.7377 75.5082C10.4422 75.8187 10.0926 76.0725 9.70602 76.2574C9.30467 76.4497 8.86954 76.5615 8.42521 76.5865V76.608H0V63.0565H7.40452C7.87066 63.0542 8.33241 63.1466 8.76178 63.3281C9.17728 63.5012 9.5538 63.7559 9.86903 64.0772C10.1816 64.3974 10.432 64.7729 10.6076 65.1845C10.7898 65.6098 10.8822 66.0681 10.8792 66.5307C10.8792 67.2545 10.6873 67.899 10.3036 68.464C9.93894 69.0128 9.42181 69.4431 8.81582 69.7018C9.2152 69.7719 9.5981 69.9155 9.94504 70.1253C10.2884 70.3317 10.5964 70.5919 10.8572 70.896C11.117 71.1987 11.3226 71.544 11.4649 71.9167C11.6121 72.305 11.6858 72.7173 11.6824 73.1325V73.1321ZM175.336 65.7943C175.336 66.2864 175.55 66.7062 175.977 67.0536C176.404 67.401 176.94 67.7196 177.584 68.0093C178.228 68.299 178.923 68.5885 179.668 68.8779C180.388 69.1551 181.086 69.4891 181.753 69.8767C182.365 70.2257 182.909 70.6817 183.36 71.2229C183.787 71.744 184 72.3885 184 73.1562C184 74.3144 183.544 75.2156 182.632 75.8598C181.72 76.5039 180.295 76.8261 178.355 76.8264C177.557 76.831 176.765 76.7025 176.009 76.4463C175.333 76.2206 174.679 75.9335 174.055 75.5887C173.395 75.245 172.769 74.8378 172.188 74.3729L173.121 73.3522C173.537 73.9268 174.018 74.4514 174.555 74.9155C175.065 75.3369 175.622 75.6975 176.216 75.9903C176.86 76.3163 177.58 76.4791 178.376 76.4789C179.158 76.4789 179.798 76.4102 180.298 76.2728C180.798 76.1354 181.189 75.958 181.47 75.7407C181.753 75.5236 181.948 75.2746 182.057 74.9937C182.162 74.7279 182.217 74.4448 182.22 74.1589C182.22 73.7242 182.006 73.3298 181.579 72.9756C181.152 72.6215 180.616 72.2792 179.972 71.9488C179.328 71.6231 178.629 71.2862 177.877 70.9382C177.152 70.6057 176.451 70.2211 175.782 69.7875C175.171 69.3974 174.628 68.9095 174.175 68.3432C173.748 67.8007 173.534 67.1674 173.534 66.4433C173.536 66.0011 173.632 65.5644 173.817 65.1625C174.015 64.7298 174.308 64.3475 174.674 64.0443C175.058 63.7188 175.543 63.4583 176.129 63.2626C176.716 63.0669 177.414 62.9692 178.225 62.9695C179.354 62.9695 180.371 63.0419 181.275 63.1866C182.085 63.3105 182.887 63.4845 183.675 63.7077L183.197 64.9678C182.98 64.8234 182.734 64.657 182.459 64.4687C182.16 64.267 181.848 64.0856 181.525 63.9256C181.158 63.7446 180.776 63.5958 180.383 63.481C179.95 63.3551 179.501 63.293 179.049 63.2964C178.441 63.2964 177.909 63.3616 177.453 63.4919C177.037 63.6033 176.644 63.787 176.291 64.0346C175.996 64.2406 175.751 64.511 175.575 64.8255C175.416 65.1226 175.334 65.455 175.336 65.7921V65.7943ZM164.359 63.0565C165.219 63.0579 166.07 63.2391 166.856 63.5886C167.659 63.9376 168.394 64.4258 169.028 65.0307C169.67 65.6469 170.193 66.3769 170.569 67.1837C170.961 68.0118 171.161 68.9172 171.155 69.8332C171.16 70.755 170.94 71.6642 170.515 72.4822C170.102 73.2886 169.551 74.0161 168.886 74.6317C168.241 75.2315 167.499 75.7196 166.693 76.0759C165.89 76.4307 165.112 76.6079 164.359 76.6076H158.887V63.0565H164.359ZM164.359 76.2587C165.242 76.2587 165.963 76.0887 166.52 75.7486C167.074 75.4114 167.528 74.9314 167.833 74.3588C168.152 73.773 168.369 73.089 168.485 72.3069C168.605 71.48 168.663 70.6454 168.661 69.8099C168.664 68.9778 168.605 68.1467 168.485 67.3234C168.369 66.5492 168.152 65.8724 167.833 65.293C167.527 64.7268 167.073 64.2541 166.52 63.9252C165.963 63.5921 165.243 63.4257 164.359 63.426H161.362V76.2592H164.359V76.2587ZM155.835 63.0565V76.6063H153.359L145.455 63.6444V76.6063H145.108V63.0565H147.583L155.487 76.0184V63.0565H155.835ZM130.799 74.7771C130.133 74.1202 129.607 73.3338 129.256 72.4664C128.57 70.7886 128.57 68.9085 129.256 67.2307C129.607 66.3632 130.133 65.5768 130.799 64.9199C131.452 64.2594 132.233 63.7395 133.095 63.3922C133.926 63.0538 134.815 62.8791 135.712 62.8777C136.612 62.8795 137.503 63.0514 138.338 63.3843C139.204 63.7328 139.99 64.2525 140.649 64.9122C141.309 65.5718 141.828 66.3579 142.177 67.2232C142.853 68.9083 142.853 70.7892 142.177 72.4743C141.828 73.3395 141.309 74.1255 140.649 74.785C139.989 75.4446 139.203 75.9642 138.338 76.3128C137.503 76.6457 136.612 76.8176 135.712 76.8194C134.815 76.818 133.926 76.6433 133.095 76.3049C132.233 75.9576 131.452 75.4377 130.799 74.7771ZM135.713 63.2292C134.792 63.2292 134.045 63.4032 133.472 63.7512C132.902 64.0964 132.433 64.5864 132.113 65.1713C131.781 65.7703 131.553 66.4689 131.43 67.2671C131.303 68.1211 131.242 68.9835 131.246 69.8468C131.246 71.0138 131.349 72.0829 131.554 73.0543C131.759 74.0256 132.158 74.8087 132.751 75.4037C133.103 75.7527 133.527 76.0213 133.993 76.1911C134.484 76.3756 135.058 76.4677 135.713 76.4674C136.634 76.4674 137.384 76.2858 137.962 75.9226C138.537 75.5633 139.008 75.0605 139.329 74.4638C139.662 73.8548 139.892 73.1435 140.02 72.3297C140.151 71.4685 140.215 70.5984 140.212 69.7273C140.212 68.5603 140.109 67.511 139.904 66.5795C139.699 65.648 139.305 64.8901 138.722 64.3057C138.366 63.9561 137.939 63.6865 137.471 63.5148C136.973 63.3256 136.387 63.231 135.713 63.231L135.713 63.2292ZM126.347 63.0534V76.6063H123.85V63.8597L118.094 76.6063H115.618L109.846 63.8597V76.6063H109.499V63.0565H111.975L117.924 76.2157L123.85 63.0565L126.347 63.0534ZM102.646 71.2427H96.6744L94.5895 76.6063H94.2204L99.5405 63.0565H101.755L107.618 76.6063H104.861L102.646 71.2427ZM102.514 70.8736L99.5827 63.7951L96.8045 70.8745L102.514 70.8736ZM89.8011 76.6063V63.0565H92.2766V76.6063H89.8011ZM80.6483 63.0565C81.5086 63.0579 82.3591 63.2391 83.1453 63.5886C83.9484 63.9376 84.6836 64.4258 85.3167 65.0307C85.9593 65.6469 86.482 66.3769 86.8585 67.1837C87.2499 68.0118 87.4502 68.9172 87.4447 69.8332C87.4492 70.7551 87.2294 71.6642 86.804 72.4822C86.3914 73.2887 85.84 74.0162 85.1752 74.6317C84.5295 75.2315 83.7884 75.7196 82.9823 76.0759C82.1788 76.4307 81.4008 76.6079 80.6483 76.6076H75.1762V63.0565H80.6483ZM80.6483 76.2587C81.5314 76.2587 82.2516 76.0887 82.8087 75.7486C83.3633 75.4114 83.817 74.9314 84.1225 74.3588C84.4412 73.773 84.6584 73.089 84.7741 72.3069C84.8929 71.4799 84.9509 70.6453 84.9476 69.8099C84.9512 68.9779 84.8932 68.1468 84.7741 67.3234C84.6569 66.5492 84.4397 65.8724 84.1225 65.293C83.8161 64.7268 83.3621 64.2541 82.8087 63.9252C82.2522 63.5921 81.532 63.4257 80.6483 63.426H77.6517V76.2592H80.6483V76.2587ZM51.3777 74.7819C50.7111 74.1251 50.186 73.3387 49.8346 72.4712C49.1486 70.7932 49.1486 68.913 49.8346 67.2351C50.186 66.3676 50.7111 65.5812 51.3777 64.9243C52.0308 64.2641 52.8119 63.7442 53.6731 63.3966C54.5047 63.0583 55.3937 62.8836 56.2914 62.8821C57.1907 62.8839 58.0815 63.0559 58.9167 63.3891C59.782 63.7375 60.5681 64.257 61.2277 64.9166C61.8873 65.5762 62.4068 66.3623 62.7552 67.2276C63.4312 68.9127 63.4312 70.7936 62.7552 72.4787C62.4068 73.344 61.8873 74.1301 61.2277 74.7896C60.5681 75.4492 59.782 75.9688 58.9167 76.3172C58.0815 76.6504 57.1907 76.8224 56.2914 76.8242C55.3937 76.8227 54.5047 76.648 53.6731 76.3097C52.8119 75.9621 52.0308 75.4422 51.3777 74.7819ZM56.2914 63.2353C55.3699 63.2353 54.6229 63.4093 54.0505 63.7573C53.4802 64.1026 53.0114 64.5927 52.6919 65.1779C52.3592 65.7763 52.1314 66.4749 52.0087 67.2737C51.882 68.1277 51.8205 68.9901 51.8246 69.8534C51.8246 71.0201 51.9271 72.0892 52.1322 73.0609C52.3372 74.0325 52.7363 74.8156 53.3295 75.4103C53.6823 75.758 54.106 76.0255 54.5716 76.1946C55.0629 76.3788 55.6361 76.4709 56.2914 76.4709C57.2126 76.4709 57.9624 76.2892 58.5406 75.9257C59.115 75.5665 59.586 75.0639 59.9071 74.4673C60.2401 73.8584 60.4705 73.1468 60.5982 72.3328C60.7297 71.4716 60.7939 70.6015 60.7903 69.7303C60.7903 68.5633 60.6877 67.5141 60.4827 66.5826C60.2776 65.6511 59.8837 64.8936 59.3007 64.3101C58.9445 63.9606 58.5179 63.691 58.0494 63.5192C57.5514 63.33 56.9656 63.2352 56.2918 63.2349L56.2914 63.2353ZM49.6945 76.2587V76.6063H39.1193V63.0565H41.5948V76.2587H49.6945ZM37.3917 76.2587V76.6063H26.8179V63.0565H29.2934V76.2587H37.3917ZM16.5793 63.4256V69.7879H23.1152V70.1354H16.5793V76.2587H24.874V76.6063H14.1043V63.0565H24.874V63.4256H16.5793ZM2.47506 69.6578H5.94927C6.38368 69.6578 6.75643 69.5745 7.06751 69.4078C7.37137 69.2479 7.63214 69.017 7.82765 68.7347C8.03033 68.4343 8.17696 68.0996 8.26044 67.747C8.35701 67.3488 8.40438 66.9404 8.40148 66.5307C8.4044 66.1212 8.35703 65.7129 8.26044 65.315C8.17703 64.9624 8.0304 64.6279 7.82765 64.3277C7.63389 64.0466 7.37247 63.8189 7.06751 63.6655C6.75643 63.5064 6.38368 63.4269 5.94927 63.4269H2.47506V69.6578ZM6.75291 76.2587C7.18702 76.2587 7.55611 76.1755 7.86016 76.0091C8.15936 75.8468 8.41604 75.6162 8.60931 75.336C8.81269 75.0356 8.95993 74.7008 9.04386 74.3478C9.23193 73.5481 9.23193 72.7156 9.04386 71.9158C8.95993 71.563 8.8127 71.2284 8.60931 70.9281C8.41633 70.6476 8.15958 70.417 7.86016 70.255C7.55611 70.0886 7.18702 70.0052 6.75291 70.005H2.47506V76.2587H6.75291Z" fill="white"/>
</g>
<defs>
<clipPath id="clip0_742_588">
<rect width="184" height="13.9465" fill="white" transform="translate(0 62.8777)"/>
</clipPath>
</defs>
</svg>
