<svg width="125" height="52" viewBox="0 0 125 52" fill="none" xmlns="http://www.w3.org/2000/svg">
<path fill-rule="evenodd" clip-rule="evenodd" d="M50.2498 30.9631V31.8316H58.0264C67.7912 31.8316 71.8669 27.9 71.8669 21.7003C71.8669 17.4002 68.8288 12.5862 60.0758 12.2434C62.8149 11.4197 64.4458 9.48792 64.7726 7.39642C72.648 8.48637 77.8304 14.9072 77.8848 21.4502C77.9455 28.7284 71.7043 36.1572 62.2051 36.5661H47.7652C47.7665 25.6986 47.7919 11.3572 47.8403 0.719953L52.9238 0.710695C58.1904 0.710695 60.6106 3.52138 61.0189 6.35167H50.1656L50.2497 30.9631H50.2498ZM57.9007 37.5996H66.3505C76.6482 36.8876 83.4064 29.084 83.2584 21.4543C83.1103 13.8166 76.0435 6.35167 64.9558 6.35167H64.8271C64.6628 3.17853 61.4994 0 54.6754 0H41.6986L41.5693 37.5996H57.9007ZM61.0812 7.23379C61.0797 9.5606 59.7542 11.701 57.5787 12.0602L57.6168 13.0477C64.1827 13.1712 66.3667 17.3775 66.3668 21.7501C66.3668 26.7648 62.8228 30.8568 56.4537 30.9617V26.2624L56.3765 7.23425L61.0812 7.23379Z" fill="black"/>
<g clip-path="url(#clip0_1104_57)">
<path d="M7.92561 49.4951C7.92761 49.7977 7.86997 50.0978 7.75599 50.3781C7.64602 50.6485 7.48615 50.8959 7.28471 51.1072C7.08428 51.3178 6.84708 51.49 6.5848 51.6155C6.31252 51.7459 6.01731 51.8218 5.71587 51.8387V51.8533H0V42.6597H5.02341C5.33965 42.6581 5.65291 42.7208 5.94421 42.8439C6.22609 42.9613 6.48153 43.1341 6.69539 43.3521C6.90744 43.5694 7.07735 43.8241 7.19648 44.1033C7.32003 44.3918 7.38275 44.7028 7.3807 45.0166C7.3807 45.5077 7.25053 45.9449 6.9902 46.3282C6.74282 46.7006 6.39198 46.9924 5.98087 47.168C6.25182 47.2155 6.51158 47.3129 6.74696 47.4553C6.97992 47.5953 7.18887 47.7719 7.36579 47.9782C7.54205 48.1835 7.68152 48.4178 7.77805 48.6706C7.8779 48.9341 7.92794 49.2137 7.92561 49.4954V49.4951ZM118.952 44.517C118.952 44.8509 119.097 45.1357 119.387 45.3714C119.677 45.6071 120.04 45.8232 120.477 46.0197C120.914 46.2163 121.386 46.4127 121.891 46.609C122.38 46.7971 122.853 47.0237 123.306 47.2866C123.721 47.5234 124.09 47.8327 124.396 48.1999C124.686 48.5535 124.83 48.9907 124.83 49.5115C124.83 50.2973 124.521 50.9087 123.902 51.3457C123.284 51.7827 122.316 52.0013 121 52.0015C120.459 52.0046 119.921 51.9174 119.409 51.7436C118.95 51.5905 118.507 51.3957 118.083 51.1618C117.635 50.9286 117.211 50.6524 116.816 50.3369L117.45 49.6445C117.732 50.0343 118.058 50.3902 118.422 50.7051C118.768 50.991 119.146 51.2356 119.549 51.4342C119.986 51.6554 120.475 51.7659 121.015 51.7657C121.545 51.7657 121.98 51.7191 122.319 51.6259C122.658 51.5327 122.923 51.4124 123.114 51.2649C123.306 51.1176 123.438 50.9487 123.512 50.7582C123.583 50.5778 123.621 50.3858 123.622 50.1918C123.622 49.8969 123.477 49.6293 123.188 49.389C122.898 49.1488 122.535 48.9166 122.098 48.6924C121.66 48.4714 121.186 48.2429 120.676 48.0068C120.184 47.7812 119.709 47.5203 119.255 47.2261C118.84 46.9615 118.472 46.6305 118.165 46.2463C117.875 45.8782 117.73 45.4486 117.73 44.9573C117.731 44.6573 117.796 44.361 117.922 44.0884C118.056 43.7948 118.255 43.5355 118.503 43.3298C118.764 43.109 119.093 42.9322 119.49 42.7995C119.888 42.6667 120.362 42.6004 120.912 42.6006C121.678 42.6006 122.368 42.6497 122.982 42.7479C123.531 42.8319 124.075 42.95 124.61 43.1014L124.285 43.9563C124.138 43.8584 123.971 43.7455 123.785 43.6177C123.582 43.4809 123.37 43.3578 123.151 43.2493C122.902 43.1265 122.643 43.0255 122.376 42.9476C122.082 42.8622 121.778 42.8201 121.472 42.8224C121.059 42.8224 120.698 42.8666 120.389 42.9551C120.106 43.0306 119.84 43.1552 119.6 43.3232C119.4 43.463 119.234 43.6464 119.115 43.8598C119.006 44.0614 118.951 44.2868 118.952 44.5156V44.517ZM111.505 42.6597C112.089 42.6606 112.666 42.7835 113.199 43.0206C113.744 43.2574 114.243 43.5886 114.672 43.999C115.108 44.4171 115.463 44.9123 115.718 45.4596C115.984 46.0214 116.12 46.6357 116.116 47.2571C116.119 47.8825 115.97 48.4993 115.682 49.0543C115.402 49.6013 115.028 50.0949 114.577 50.5125C114.139 50.9195 113.636 51.2506 113.089 51.4923C112.544 51.733 112.016 51.8532 111.505 51.853H107.793V42.6597H111.505ZM111.505 51.6164C112.104 51.6164 112.593 51.501 112.971 51.2703C113.347 51.0415 113.655 50.7159 113.862 50.3274C114.078 49.93 114.226 49.4659 114.304 48.9353C114.386 48.3743 114.425 47.8081 114.423 47.2413C114.426 46.6768 114.386 46.113 114.304 45.5544C114.226 45.0292 114.078 44.57 113.862 44.1769C113.654 43.7928 113.347 43.4721 112.971 43.249C112.594 43.023 112.105 42.9101 111.505 42.9103H109.472V51.6166H111.505V51.6164ZM105.722 42.6597V51.8521H104.043L98.6805 43.0585V51.8521H98.445V42.6597H100.124L105.486 51.4533V42.6597H105.722ZM88.7374 50.6112C88.2851 50.1655 87.9289 49.632 87.6905 49.0435C87.2251 47.9053 87.2251 46.6298 87.6905 45.4915C87.9289 44.903 88.2851 44.3695 88.7374 43.9239C89.1803 43.4757 89.7103 43.123 90.2946 42.8874C90.8586 42.6578 91.4617 42.5393 92.0706 42.5383C92.6808 42.5396 93.2852 42.6562 93.852 42.882C94.4391 43.1185 94.9723 43.471 95.4198 43.9186C95.8673 44.3661 96.2198 44.8994 96.4561 45.4864C96.9148 46.6296 96.9148 47.9057 96.4561 49.0489C96.2197 49.6359 95.8672 50.1691 95.4197 50.6166C94.9722 51.064 94.439 51.4166 93.852 51.653C93.2852 51.8789 92.6808 51.9955 92.0706 51.9967C91.4617 51.9958 90.8586 51.8773 90.2946 51.6476C89.7103 51.4121 89.1803 51.0593 88.7374 50.6112ZM92.0709 42.7768C91.4459 42.7768 90.9392 42.8948 90.5507 43.1309C90.1639 43.3652 89.8459 43.6975 89.629 44.0944C89.4032 44.5008 89.2487 44.9747 89.1655 45.5162C89.0795 46.0956 89.0378 46.6806 89.0406 47.2663C89.0406 48.0581 89.1101 48.7834 89.2492 49.4424C89.3883 50.1014 89.6591 50.6327 90.0615 51.0363C90.3006 51.273 90.5881 51.4553 90.9042 51.5704C91.2375 51.6956 91.6264 51.7581 92.0709 51.7579C92.6957 51.7579 93.2044 51.6347 93.5969 51.3883C93.9866 51.1445 94.3061 50.8035 94.5239 50.3987C94.7499 49.9855 94.9062 49.5029 94.9928 48.9508C95.082 48.3666 95.1256 47.7763 95.1231 47.1852C95.1231 46.3935 95.0535 45.6817 94.9144 45.0497C94.7753 44.4178 94.508 43.9036 94.1126 43.5071C93.8709 43.27 93.5815 43.087 93.2636 42.9706C92.9258 42.8422 92.5283 42.778 92.0712 42.778L92.0709 42.7768ZM85.7169 42.6576V51.8521H84.0228V43.2046L80.1178 51.8521H78.4384L74.5224 43.2046V51.8521H74.2869V42.6597H75.9664L80.0025 51.5871L84.0228 42.6597L85.7169 42.6576ZM69.6373 48.2134H65.5863L64.1718 51.8521H63.9214L67.5307 42.6597H69.0334L73.0108 51.8521H71.14L69.6373 48.2134ZM69.5479 47.963L67.5593 43.1607L65.6745 47.9636L69.5479 47.963ZM60.9233 51.8521V42.6597H62.6027V51.8521H60.9233ZM54.7138 42.6597C55.2974 42.6606 55.8745 42.7835 56.4078 43.0206C56.9527 43.2574 57.4514 43.5886 57.881 43.999C58.3169 44.4171 58.6715 44.9123 58.927 45.4596C59.1925 46.0214 59.3284 46.6357 59.3246 47.2571C59.3277 47.8825 59.1785 48.4993 58.89 49.0543C58.61 49.6014 58.236 50.095 57.785 50.5125C57.3469 50.9194 56.8441 51.2506 56.2972 51.4923C55.7521 51.733 55.2243 51.8532 54.7138 51.853H51.0013V42.6597H54.7138ZM54.7138 51.6164C55.3129 51.6164 55.8015 51.501 56.1795 51.2703C56.5557 51.0415 56.8635 50.7159 57.0708 50.3274C57.287 49.93 57.4343 49.4659 57.5128 48.9353C57.5934 48.3743 57.6328 47.8081 57.6306 47.2413C57.633 46.6769 57.5936 46.113 57.5128 45.5544C57.4333 45.0292 57.286 44.57 57.0708 44.1769C56.8629 43.7928 56.5549 43.4721 56.1795 43.249C55.8019 43.023 55.3133 42.9101 54.7138 42.9103H52.6808V51.6166H54.7138V51.6164ZM34.8559 50.6145C34.4037 50.1688 34.0474 49.6353 33.809 49.0468C33.3436 47.9084 33.3436 46.6329 33.809 45.4945C34.0474 44.906 34.4037 44.3725 34.8559 43.9268C35.299 43.4789 35.8289 43.1262 36.4131 42.8904C36.9773 42.6609 37.5804 42.5424 38.1895 42.5413C38.7995 42.5425 39.4039 42.6593 39.9705 42.8853C40.5576 43.1216 41.0909 43.4741 41.5384 43.9216C41.9858 44.3691 42.3383 44.9024 42.5746 45.4894C43.0333 46.6326 43.0333 47.9087 42.5746 49.0519C42.3383 49.6389 41.9858 50.1722 41.5384 50.6197C41.0909 51.0672 40.5576 51.4197 39.9705 51.656C39.4039 51.8821 38.7995 51.9988 38.1895 52C37.5804 51.9989 36.9773 51.8804 36.4131 51.6509C35.8289 51.4151 35.299 51.0624 34.8559 50.6145ZM38.1895 42.781C37.5643 42.781 37.0575 42.899 36.6692 43.1351C36.2823 43.3693 35.9642 43.7018 35.7475 44.0988C35.5218 44.5048 35.3672 44.9788 35.284 45.5207C35.198 46.1001 35.1563 46.6851 35.1591 47.2708C35.1591 48.0623 35.2286 48.7877 35.3677 49.4469C35.5068 50.106 35.7776 50.6373 36.18 51.0407C36.4194 51.2767 36.7068 51.4582 37.0227 51.5728C37.356 51.6978 37.7449 51.7603 38.1895 51.7603C38.8144 51.7603 39.3231 51.637 39.7154 51.3904C40.1051 51.1467 40.4246 50.8057 40.6424 50.401C40.8684 49.9879 41.0247 49.5052 41.1113 48.9529C41.2005 48.3687 41.2441 47.7784 41.2416 47.1873C41.2416 46.3956 41.172 45.6838 41.0329 45.0518C40.8938 44.4199 40.6265 43.906 40.2311 43.5101C39.9894 43.273 39.7 43.0901 39.3821 42.9735C39.0443 42.8452 38.6468 42.7809 38.1898 42.7807L38.1895 42.781ZM33.7139 51.6164V51.8521H26.5395V42.6597H28.219V51.6164H33.7139ZM25.3674 51.6164V51.8521H18.1939V42.6597H19.8733V51.6164H25.3674ZM11.2478 42.91V47.2264H15.6819V47.4622H11.2478V51.6164H16.8752V51.8521H9.56868V42.6597H16.8752V42.91H11.2478ZM1.67914 47.1382H4.03613C4.33084 47.1382 4.58372 47.0816 4.79477 46.9685C5.00092 46.86 5.17783 46.7034 5.31047 46.5119C5.44797 46.308 5.54745 46.081 5.60408 45.8418C5.6696 45.5717 5.70174 45.2946 5.69977 45.0166C5.70175 44.7388 5.66961 44.4618 5.60408 44.1918C5.5475 43.9527 5.44802 43.7257 5.31047 43.522C5.17902 43.3314 5.00167 43.1769 4.79477 43.0728C4.58372 42.9649 4.33084 42.9109 4.03613 42.9109H1.67914V47.1382ZM4.58134 51.6164C4.87585 51.6164 5.12625 51.5599 5.33253 51.447C5.53551 51.3369 5.70965 51.1805 5.84077 50.9904C5.97875 50.7865 6.07863 50.5594 6.13558 50.32C6.26317 49.7774 6.26317 49.2126 6.13558 48.67C6.07864 48.4307 5.97875 48.2036 5.84077 47.9999C5.70984 47.8097 5.53566 47.6532 5.33253 47.5433C5.12625 47.4304 4.87585 47.3738 4.58134 47.3736H1.67914V51.6164H4.58134Z" fill="black"/>
</g>
<defs>
<clipPath id="clip0_1104_57">
<rect width="124.83" height="9.46166" fill="white" transform="translate(0 42.5383)"/>
</clipPath>
</defs>
</svg>
