<svg width="220" height="59" viewBox="0 0 220 59" fill="none" xmlns="http://www.w3.org/2000/svg">
<path fill-rule="evenodd" clip-rule="evenodd" d="M38.6329 58.0891H0.462891L0.662052 0.175018H20.65C31.1608 0.175018 36.0334 5.07087 36.2865 9.9584H36.4847C53.5629 9.9584 64.4478 21.4565 64.676 33.2208C64.9039 44.9728 54.4943 56.9925 38.6329 58.0891ZM13.8333 49.2048V47.867H13.8331L13.7035 9.9584H30.4207C29.7919 5.59895 26.0641 1.26969 17.952 1.26969L10.122 1.28395C10.0473 17.6684 10.0084 39.7582 10.0062 56.4973H32.2479C46.8793 55.8674 56.4926 44.4249 56.3992 33.2144C56.3153 23.1363 48.3329 13.2465 36.2026 11.5676C35.6992 14.7891 33.1871 17.7647 28.9681 19.0333C42.4503 19.5614 47.1298 26.9762 47.1298 33.5997C47.1298 43.1489 40.852 49.2048 25.8115 49.2048H13.8333ZM25.1218 18.7512C28.4729 18.1979 30.5144 14.9011 30.5168 11.3171L23.2702 11.3178L23.389 40.6266V47.8649C33.1992 47.7033 38.6581 41.4005 38.6581 33.6764C38.6579 26.9413 35.294 20.4624 25.1805 20.2722L25.1218 18.7512Z" fill="white"/>
<path fill-rule="evenodd" clip-rule="evenodd" d="M133.302 18.5416C132.927 19.4584 132.739 20.4516 132.739 21.5212C132.739 22.5908 132.927 23.5909 133.302 24.5216C133.691 25.4384 134.225 26.2441 134.906 26.9386C135.601 27.6193 136.406 28.1541 137.323 28.5431C138.254 28.9181 139.254 29.1056 140.324 29.1056C141.393 29.1056 142.386 28.9181 143.303 28.5431C144.234 28.1541 145.04 27.6193 145.72 26.9386C146.415 26.2441 146.95 25.4384 147.325 24.5216C147.714 23.5909 147.908 22.5908 147.908 21.5212C147.908 20.4516 147.714 19.4584 147.325 18.5416C146.95 17.6109 146.415 16.8052 145.72 16.1245C145.04 15.43 144.234 14.8952 143.303 14.5201C142.386 14.1312 141.393 13.9367 140.324 13.9367C139.254 13.9367 138.254 14.1312 137.323 14.5201C136.406 14.8952 135.601 15.43 134.906 16.1245C134.225 16.8052 133.691 17.6109 133.302 18.5416ZM135.073 25.2509C134.573 24.1813 134.323 22.9381 134.323 21.5212C134.323 20.1043 134.573 18.868 135.073 17.8123C135.587 16.7427 136.288 15.9162 137.177 15.3328C138.08 14.7354 139.129 14.4368 140.324 14.4368C141.518 14.4368 142.567 14.7354 143.47 15.3328C144.373 15.9301 145.074 16.7635 145.574 17.8331C146.074 18.8888 146.324 20.1182 146.324 21.5212C146.324 22.9242 146.074 24.1605 145.574 25.2301C145.074 26.2997 144.373 27.1331 143.47 27.7304C142.567 28.3139 141.518 28.6056 140.324 28.6056C139.129 28.6056 138.08 28.3139 137.177 27.7304C136.274 27.1331 135.573 26.3066 135.073 25.2509Z" fill="white"/>
<path fill-rule="evenodd" clip-rule="evenodd" d="M75.723 28.8139V14.2284H78.6192C80.1195 14.2284 81.2863 14.541 82.1198 15.1661C82.9532 15.7912 83.3699 16.6593 83.3699 17.7706C83.3699 18.5902 83.1269 19.2917 82.6407 19.8751C82.1545 20.4446 81.4738 20.8336 80.5987 21.0419V21.167C81.7933 21.3198 82.724 21.7365 83.3908 22.4171C84.0714 23.0839 84.4118 23.9313 84.4118 24.9592C84.4118 26.1677 83.9464 27.1123 83.0157 27.7929C82.085 28.4736 80.7793 28.8139 79.0985 28.8139H75.723ZM78.6401 14.7285H77.1399V20.9794H78.6192C80.814 20.9794 81.9114 19.9376 81.9114 17.854C81.9114 15.7703 80.821 14.7285 78.6401 14.7285ZM79.0985 21.4795H77.1399V28.3139H79.0985C81.6405 28.3139 82.9115 27.1748 82.9115 24.8967C82.9115 22.6186 81.6405 21.4795 79.0985 21.4795Z" fill="white"/>
<path d="M92.5419 28.8139V14.2284H98.897V15.2494L95.2506 14.7702C94.6116 14.6868 94.181 14.6452 93.9588 14.6452V21.0003C94.1393 21.0003 94.57 20.9794 95.2506 20.9378L98.6678 20.7294V21.6879L95.2506 21.4795C94.57 21.4378 94.1393 21.417 93.9588 21.417V28.3972C94.2088 28.3972 94.6464 28.3555 95.2715 28.2722L98.9595 27.7929V28.8139H92.5419Z" fill="white"/>
<path d="M108.702 14.2284H107.285V28.8139H113.411V27.7513L109.952 28.2722C109.383 28.3555 108.966 28.3972 108.702 28.3972V14.2284Z" fill="white"/>
<path d="M120.849 14.2284H122.265V28.3972C122.529 28.3972 122.946 28.3555 123.516 28.2722L126.974 27.7513V28.8139H120.849V14.2284Z" fill="white"/>
<path fill-rule="evenodd" clip-rule="evenodd" d="M75.723 53.1926V38.6071H80.307C81.9183 38.6071 83.3213 38.9127 84.516 39.5239C85.7106 40.1351 86.6413 40.9894 87.308 42.0867C87.9748 43.1702 88.3082 44.4413 88.3082 45.8998C88.3082 47.3584 87.9748 48.6363 87.308 49.7337C86.6413 50.8172 85.7106 51.6646 84.516 52.2758C83.3213 52.887 81.9183 53.1926 80.307 53.1926H75.723ZM80.307 39.1071H77.1399V52.6925H80.307C82.3212 52.6925 83.8909 52.0952 85.016 50.9006C86.1551 49.7059 86.7246 48.039 86.7246 45.8998C86.7246 43.7606 86.1551 42.0937 85.016 40.8991C83.8909 39.7044 82.3212 39.1071 80.307 39.1071Z" fill="white"/>
<path d="M98.0691 38.6071H96.6522V53.1926H98.0691V38.6071Z" fill="white"/>
<path fill-rule="evenodd" clip-rule="evenodd" d="M110.886 38.6071H112.178L117.783 53.1926H116.262L113.678 46.3582H108.948L106.802 53.1926H105.281L110.886 38.6071ZM111.032 39.6905L109.094 45.8581H113.491L111.157 39.6905H111.032Z" fill="white"/>
<path d="M137.436 53.1926H138.853V38.6071H137.353L132.435 48.0668H132.31L125.747 38.3153H125.33L124.809 53.1926H126.226L125.768 40.9616H125.893L131.623 49.4837H132.269L137.311 39.8156H137.436V53.1926Z" fill="white"/>
<path fill-rule="evenodd" clip-rule="evenodd" d="M147.186 45.8998C147.186 44.8302 147.374 43.837 147.749 42.9202C148.138 41.9895 148.673 41.1838 149.353 40.5032C150.048 39.8086 150.853 39.2738 151.77 38.8988C152.701 38.5098 153.701 38.3153 154.771 38.3153C155.84 38.3153 156.834 38.5098 157.75 38.8988C158.681 39.2738 159.487 39.8086 160.167 40.5032C160.862 41.1838 161.397 41.9895 161.772 42.9202C162.161 43.837 162.355 44.8302 162.355 45.8998C162.355 46.9694 162.161 47.9696 161.772 48.9002C161.397 49.8171 160.862 50.6227 160.167 51.3173C159.487 51.9979 158.681 52.5327 157.75 52.9217C156.834 53.2967 155.84 53.4843 154.771 53.4843C153.701 53.4843 152.701 53.2967 151.77 52.9217C150.853 52.5327 150.048 51.9979 149.353 51.3173C148.673 50.6227 148.138 49.8171 147.749 48.9002C147.374 47.9696 147.186 46.9694 147.186 45.8998ZM148.77 45.8998C148.77 47.3167 149.02 48.5599 149.52 49.6295C150.02 50.6852 150.721 51.5117 151.624 52.1091C152.527 52.6925 153.576 52.9842 154.771 52.9842C155.965 52.9842 157.014 52.6925 157.917 52.1091C158.82 51.5117 159.521 50.6783 160.021 49.6087C160.522 48.5391 160.772 47.3028 160.772 45.8998C160.772 44.4968 160.522 43.2675 160.021 42.2118C159.521 41.1422 158.82 40.3087 157.917 39.7114C157.014 39.1141 155.965 38.8154 154.771 38.8154C153.576 38.8154 152.527 39.1141 151.624 39.7114C150.735 40.2948 150.034 41.1213 149.52 42.1909C149.02 43.2466 148.77 44.4829 148.77 45.8998Z" fill="white"/>
<path d="M170.892 38.3153L170.371 53.1926H171.788L171.329 40.8157H171.454L181.935 53.4843H182.185L182.706 38.6071H181.289L181.748 50.9839H181.623L171.142 38.3153H170.892Z" fill="white"/>
<path fill-rule="evenodd" clip-rule="evenodd" d="M191.775 38.6071H196.359C197.971 38.6071 199.374 38.9127 200.568 39.5239C201.763 40.1351 202.694 40.9894 203.36 42.0867C204.027 43.1702 204.361 44.4413 204.361 45.8998C204.361 47.3584 204.027 48.6363 203.36 49.7337C202.694 50.8172 201.763 51.6646 200.568 52.2758C199.374 52.887 197.971 53.1926 196.359 53.1926H191.775V38.6071ZM196.359 39.1071H193.192V52.6925H196.359C198.374 52.6925 199.943 52.0952 201.068 50.9006C202.208 49.7059 202.777 48.039 202.777 45.8998C202.777 43.7606 202.208 42.0937 201.068 40.8991C199.943 39.7044 198.374 39.1071 196.359 39.1071Z" fill="white"/>
<path d="M211.684 51.484H211.559L211.434 52.7342C212.114 52.9564 212.83 53.137 213.58 53.2759C214.33 53.4148 214.983 53.4843 215.538 53.4843C216.414 53.4843 217.178 53.3176 217.83 52.9842C218.497 52.6508 219.011 52.1924 219.372 51.609C219.733 51.0117 219.914 50.3241 219.914 49.5462C219.914 48.6988 219.72 47.9973 219.331 47.4417C218.956 46.8722 218.469 46.386 217.872 45.9832C217.289 45.5803 216.684 45.1983 216.059 44.8371C215.518 44.5315 215.011 44.219 214.538 43.8995C214.066 43.5661 213.677 43.198 213.371 42.7952C213.08 42.3784 212.934 41.8853 212.934 41.3158C212.934 40.5518 213.205 39.9475 213.746 39.503C214.288 39.0446 215.004 38.8154 215.893 38.8154C217.129 38.8154 218.143 39.246 218.935 40.1073H219.06L219.164 38.9404C218.817 38.7598 218.324 38.614 217.685 38.5029C217.046 38.3778 216.448 38.3153 215.893 38.3153C214.642 38.3153 213.635 38.6418 212.871 39.2947C212.107 39.9336 211.725 40.781 211.725 41.8367C211.725 42.5451 211.899 43.1563 212.246 43.6703C212.594 44.1704 213.038 44.6149 213.58 45.0038C214.122 45.3789 214.691 45.7401 215.288 46.0873C216.15 46.5874 216.823 47.0528 217.309 47.4834C217.81 47.914 218.164 48.3377 218.372 48.7544C218.594 49.1711 218.706 49.6226 218.706 50.1088C218.706 50.9839 218.414 51.6854 217.83 52.2132C217.247 52.7272 216.483 52.9842 215.538 52.9842C214.872 52.9842 214.198 52.8522 213.517 52.5883C212.837 52.3244 212.225 51.9563 211.684 51.484Z" fill="white"/>
</svg>
