<svg width="15" height="15" viewBox="0 0 15 15" fill="none" xmlns="http://www.w3.org/2000/svg">
<path d="M8.06754 7.60611L1.81753 13.8561C1.70026 13.9734 1.5412 14.0393 1.37535 14.0393C1.2095 14.0393 1.05044 13.9734 0.93316 13.8561C0.815885 13.7388 0.75 13.5798 0.75 13.4139C0.75 13.2481 0.815885 13.089 0.93316 12.9717L6.74175 7.16392L0.93316 1.35611C0.815885 1.23883 0.75 1.07977 0.75 0.913922C0.75 0.748069 0.815885 0.58901 0.93316 0.471734C1.05044 0.354459 1.2095 0.288574 1.37535 0.288574C1.5412 0.288574 1.70026 0.354459 1.81753 0.471734L8.06754 6.72173C8.12565 6.77978 8.17175 6.84871 8.2032 6.92458C8.23465 7.00046 8.25084 7.08179 8.25084 7.16392C8.25084 7.24606 8.23465 7.32739 8.2032 7.40326C8.17175 7.47913 8.12565 7.54806 8.06754 7.60611ZM14.3175 6.72173L8.06754 0.471734C7.95026 0.354459 7.7912 0.288574 7.62535 0.288574C7.4595 0.288574 7.30044 0.354459 7.18316 0.471734C7.06588 0.58901 7 0.748069 7 0.913922C7 1.07977 7.06588 1.23883 7.18316 1.35611L12.9918 7.16392L7.18316 12.9717C7.06588 13.089 7 13.2481 7 13.4139C7 13.5798 7.06588 13.7388 7.18316 13.8561C7.30044 13.9734 7.4595 14.0393 7.62535 14.0393C7.7912 14.0393 7.95026 13.9734 8.06754 13.8561L14.3175 7.60611C14.3756 7.54806 14.4217 7.47913 14.4532 7.40326C14.4847 7.32739 14.5008 7.24606 14.5008 7.16392C14.5008 7.08179 14.4847 7.00046 14.4532 6.92458C14.4217 6.84871 14.3756 6.77978 14.3175 6.72173Z" fill="#454545"/>
</svg>
