<svg width="100" height="45" viewBox="0 0 100 45" fill="none" xmlns="http://www.w3.org/2000/svg">
<path d="M17.8294 11.2615C16.6129 10.4212 15.0253 10 13.0669 10H5.4848C4.88442 10 4.55272 10.3017 4.48971 10.9044L1.40957 30.3303C1.37756 30.5211 1.42507 30.6956 1.55166 30.8543C1.67753 31.0133 1.83585 31.0924 2.02545 31.0924H5.6269C6.25857 31.0924 6.60576 30.7914 6.66949 30.1877L7.52234 24.9506C7.55349 24.6968 7.66458 24.4905 7.85419 24.3315C8.04364 24.1729 8.28061 24.069 8.56494 24.0216C8.84927 23.9744 9.11738 23.9507 9.37057 23.9507C9.62304 23.9507 9.92302 23.9667 10.2711 23.9983C10.6183 24.03 10.8396 24.0454 10.9345 24.0454C13.6512 24.0454 15.7836 23.2763 17.3319 21.7364C18.8794 20.197 19.654 18.0625 19.654 15.3323C19.654 13.4595 19.0454 12.1025 17.8294 11.2609V11.2615ZM13.92 17.0945C13.7616 18.2057 13.3514 18.9354 12.688 19.2847C12.0244 19.6344 11.0767 19.8082 9.8448 19.8082L8.2809 19.8559L9.08668 14.7612C9.14954 14.4123 9.35479 14.2377 9.70256 14.2377H10.6032C11.8663 14.2377 12.783 14.4206 13.3517 14.785C13.92 15.1503 14.1096 15.9205 13.92 17.0945Z" fill="#003087"/>
<path d="M97.8432 10H94.3367C93.9884 10 93.7833 10.1746 93.7207 10.5238L90.6403 30.3311L90.5928 30.4262C90.5928 30.5858 90.6561 30.7358 90.7827 30.8787C90.9084 31.0212 91.067 31.0928 91.2565 31.0928H94.3844C94.9838 31.0928 95.3156 30.7918 95.3796 30.1883L98.4598 10.7143V10.667C98.4595 10.2227 98.2535 10.0004 97.8432 10.0004V10Z" fill="#009CDE"/>
<path d="M55.4796 17.6705C55.4796 17.5121 55.4161 17.361 55.2904 17.2184C55.1636 17.0757 55.0214 17.0039 54.8638 17.0039H51.215C50.8668 17.0039 50.5826 17.1634 50.3619 17.48L45.3388 24.9081L43.2539 17.7659C43.0951 17.2583 42.7479 17.0039 42.2113 17.0039H38.6568C38.4984 17.0039 38.3562 17.0755 38.2306 17.2184C38.1039 17.361 38.041 17.5123 38.041 17.6705C38.041 17.7345 38.3491 18.6704 38.965 20.4797C39.5809 22.2893 40.2444 24.2415 40.9553 26.3366C41.6662 28.4315 42.037 29.5429 42.0689 29.6691C39.4782 33.2245 38.1833 35.1293 38.1833 35.3828C38.1833 35.7958 38.3885 36.0019 38.7993 36.0019H42.4481C42.7956 36.0019 43.0798 35.8435 43.3012 35.5258L55.3853 18.0034C55.448 17.9404 55.4796 17.8298 55.4796 17.6703V17.6705Z" fill="#003087"/>
<path d="M89.4566 17.0014H85.855C85.4124 17.0014 85.1447 17.5252 85.0498 18.5727C84.2275 17.3037 82.7278 16.668 80.5476 16.668C78.2729 16.668 76.3377 17.5252 74.7426 19.2393C73.147 20.9535 72.3496 22.9695 72.3496 25.2864C72.3496 27.1596 72.8944 28.6513 73.9842 29.7619C75.074 30.8736 76.5351 31.4284 78.3681 31.4284C79.284 31.4284 80.2159 31.2376 81.1636 30.857C82.1115 30.4762 82.8532 29.9685 83.3912 29.3334C83.3912 29.3653 83.359 29.5078 83.2965 29.7616C83.2327 30.016 83.2016 30.2069 83.2016 30.333C83.2016 30.8415 83.4064 31.0947 83.8178 31.0947H87.0878C87.6872 31.0947 88.0352 30.7937 88.1297 30.1901L90.0728 17.763C90.1039 17.5725 90.0567 17.3981 89.9307 17.2392C89.8038 17.081 89.6462 17.0014 89.4566 17.0014ZM83.2726 26.3814C82.4669 27.175 81.4955 27.5717 80.3583 27.5717C79.4417 27.5717 78.6999 27.3182 78.131 26.81C77.562 26.3031 77.2777 25.6047 77.2777 24.7149C77.2777 23.5413 77.6727 22.5487 78.4627 21.7393C79.2515 20.9298 80.2318 20.5251 81.4007 20.5251C82.2846 20.5251 83.0192 20.787 83.6041 21.3105C84.1881 21.8343 84.4812 22.5567 84.4812 23.4773C84.481 24.6198 84.078 25.5882 83.2726 26.3814Z" fill="#009CDE"/>
<path d="M35.6234 17.0014H32.0219C31.579 17.0014 31.311 17.5252 31.2162 18.5727C30.3632 17.3037 28.8624 16.668 26.7142 16.668C24.4396 16.668 22.5043 17.5252 20.9091 19.2393C19.3135 20.9535 18.5161 22.9695 18.5161 25.2864C18.5161 27.1596 19.0612 28.6513 20.1511 29.7619C21.2411 30.8736 22.7019 31.4284 24.5344 31.4284C25.4186 31.4284 26.3353 31.2376 27.2829 30.857C28.2306 30.4762 28.9889 29.9685 29.5575 29.3334C29.4308 29.7141 29.3679 30.0476 29.3679 30.333C29.3679 30.8415 29.5732 31.0947 29.984 31.0947H33.2537C33.8535 31.0947 34.2014 30.7937 34.2963 30.1901L36.2391 17.763C36.2703 17.5725 36.2229 17.3981 36.097 17.2392C35.9706 17.081 35.8128 17.0014 35.6234 17.0014ZM29.4392 26.405C28.6334 27.1837 27.6457 27.5717 26.4775 27.5717C25.5608 27.5717 24.8263 27.3182 24.2739 26.81C23.7207 26.3031 23.4445 25.6047 23.4445 24.7149C23.4445 23.5413 23.8392 22.5487 24.6293 21.7393C25.4186 20.9298 26.398 20.5251 27.5674 20.5251C28.4515 20.5251 29.186 20.787 29.771 21.3107C30.3551 21.8345 30.6477 22.5569 30.6477 23.4774C30.6477 24.6517 30.2448 25.6281 29.4392 26.405Z" fill="#003087"/>
<path d="M71.6626 11.2615C70.4462 10.4212 68.8589 10 66.9002 10H59.3653C58.7332 10 58.3855 10.3017 58.3229 10.9044L55.2426 30.3303C55.2106 30.5213 55.2579 30.6958 55.3847 30.8544C55.51 31.0133 55.6689 31.0924 55.8585 31.0924H59.7441C60.1232 31.0924 60.3758 30.8863 60.5024 30.4735L61.3555 24.9506C61.3868 24.6968 61.4975 24.4905 61.6872 24.3315C61.8768 24.1729 62.1135 24.0691 62.3981 24.0216C62.6823 23.9744 62.9503 23.9507 63.2037 23.9507C63.4562 23.9507 63.7562 23.9667 64.1038 23.9983C64.4513 24.03 64.6732 24.0454 64.7672 24.0454C67.4845 24.0454 69.6165 23.2763 71.1647 21.7364C72.7129 20.197 73.4868 18.0625 73.4868 15.3323C73.4871 13.4597 72.8786 12.1027 71.6626 11.2611V11.2615ZM66.8053 19.0942C66.1102 19.5702 65.0676 19.8082 63.6778 19.8082L62.1613 19.8559L62.9669 14.7612C63.0295 14.4123 63.2347 14.2377 63.5828 14.2377H64.4355C65.1305 14.2377 65.6832 14.2694 66.0946 14.3327C66.5046 14.3968 66.9002 14.5945 67.2793 14.9278C67.6585 15.2612 67.8479 15.7454 67.8479 16.3802C67.8479 17.7133 67.5 18.6178 66.8053 19.0942Z" fill="#009CDE"/>
</svg>
