<svg width="38" height="25" viewBox="0 0 38 25" fill="none" xmlns="http://www.w3.org/2000/svg">
<path d="M34.3863 1.46338L34.765 1.46406C34.8674 1.46474 34.97 1.46587 35.073 1.46859C35.2526 1.47357 35.4623 1.48331 35.658 1.51842C35.8279 1.54899 35.9706 1.59542 36.1074 1.66518C36.3812 1.80437 36.6036 2.02702 36.7425 2.30094C36.8118 2.43683 36.858 2.57862 36.8886 2.75007C36.9234 2.94349 36.9332 3.1539 36.9379 3.33441C36.9409 3.43633 36.9422 3.53825 36.9425 3.64244C36.9436 3.76859 36.9436 3.89452 36.9436 4.0209V21.3062C36.9436 21.4325 36.9436 21.5585 36.9427 21.6871C36.9422 21.789 36.9409 21.891 36.9382 21.9929C36.9332 22.1732 36.9234 22.3836 36.8881 22.5793C36.8624 22.7349 36.8132 22.8858 36.742 23.0266C36.6028 23.3006 36.3801 23.5232 36.106 23.6623C35.9701 23.7316 35.8279 23.7781 35.6596 23.8084C35.4601 23.844 35.2413 23.8537 35.0766 23.8582C34.9731 23.8605 34.8701 23.8621 34.7643 23.8626C34.6386 23.8635 34.5122 23.8635 34.3863 23.8635H3.607C3.48243 23.8635 3.35786 23.8635 3.23103 23.8626C3.1291 23.8621 3.02717 23.8608 2.92527 23.8585C2.75676 23.8539 2.53797 23.844 2.34002 23.8086C2.18351 23.7826 2.03185 23.7329 1.89021 23.6614C1.75434 23.5924 1.63033 23.5022 1.52284 23.3942C1.41501 23.2865 1.32496 23.1625 1.25604 23.0266C1.18486 22.885 1.13553 22.7334 1.10972 22.577C1.07439 22.3815 1.06443 22.172 1.0599 21.9931C1.05734 21.8908 1.05583 21.7885 1.05537 21.6862L1.05469 21.3857V3.94163L1.05514 3.64153C1.05561 3.53907 1.05712 3.43662 1.05967 3.33419C1.06465 3.15481 1.07439 2.9453 1.10995 2.74826C1.13581 2.59217 1.18514 2.4409 1.25626 2.29958C1.32512 2.16414 1.41481 2.04048 1.52352 1.93199C1.63127 1.82407 1.75541 1.73387 1.89134 1.66473C2.03264 1.59374 2.18382 1.54442 2.33979 1.51842C2.5357 1.48331 2.74566 1.47357 2.92549 1.46859C3.02787 1.46587 3.13047 1.46474 3.23216 1.46406L3.61198 1.46338H34.3863Z" fill="#151515"/>
<path d="M10.1087 8.76529C10.4267 8.3678 10.6423 7.83396 10.5854 7.28857C10.1202 7.31168 9.55266 7.59547 9.22379 7.99341C8.92868 8.33405 8.66753 8.89008 8.73548 9.4126C9.25777 9.45789 9.7796 9.15168 10.1087 8.76529Z" fill="white"/>
<path d="M10.5804 9.51476C9.82162 9.46946 9.17703 9.94509 8.81487 9.94509C8.45249 9.94509 7.89782 9.53741 7.29784 9.54851C6.51713 9.55983 5.79282 10.0015 5.39646 10.7036C4.58155 12.1078 5.1813 14.1916 5.97401 15.3353C6.35882 15.9015 6.82267 16.5244 7.43374 16.502C8.01129 16.4793 8.23755 16.1283 8.93922 16.1283C9.64066 16.1283 9.8445 16.502 10.4558 16.4906C11.0895 16.4793 11.4859 15.9244 11.8707 15.3582C12.3123 14.7127 12.4928 14.0899 12.5042 14.0559C12.4928 14.0446 11.282 13.58 11.2707 12.1871C11.2594 11.0207 12.2215 10.4658 12.2668 10.4316C11.7235 9.62801 10.8746 9.53741 10.5801 9.51476" fill="white"/>
<path d="M18.1419 7.93652C19.7903 7.93652 20.9384 9.07282 20.9384 10.7271C20.9384 12.3873 19.7668 13.5295 18.1007 13.5295H16.2757V16.4322H14.957V7.93652H18.1419ZM16.2757 12.4226H17.7886C18.9369 12.4226 19.5901 11.8045 19.5901 10.733C19.5901 9.6617 18.9367 9.04927 17.7945 9.04927H16.2757V12.4226Z" fill="white"/>
<path d="M21.2656 14.6716C21.2656 13.5824 22.0957 12.9584 23.6263 12.8642L25.2688 12.7641V12.293C25.2688 11.6045 24.8156 11.2276 24.0091 11.2276C23.3437 11.2276 22.8608 11.5689 22.7611 12.0928H21.5716C21.6072 10.992 22.6431 10.1914 24.0444 10.1914C25.5515 10.1914 26.5347 10.9803 26.5347 12.2049V16.4319H25.3162V15.4134H25.2867C24.9393 16.0786 24.1738 16.4964 23.3437 16.4964C22.1193 16.4964 21.2656 15.7667 21.2656 14.6716ZM25.2688 14.1242V13.6472L23.803 13.7414C22.9786 13.7944 22.5491 14.1004 22.5491 14.636C22.5491 15.1543 22.9965 15.4899 23.697 15.4899C24.5916 15.4899 25.2688 14.9187 25.2688 14.1242Z" fill="white"/>
<path d="M27.6554 18.7044V17.6861C27.7378 17.6976 27.9378 17.7094 28.0438 17.7094C28.6266 17.7094 28.9564 17.4625 29.1566 16.8263L29.2743 16.4497L27.043 10.2681H28.4205L29.9749 15.2839H30.0043L31.5585 10.2681H32.9009L30.5871 16.7615C30.0571 18.2512 29.4508 18.7399 28.1675 18.7399C28.0674 18.7399 27.7435 18.7281 27.6554 18.7044Z" fill="white"/>
</svg>
