<svg width="100" height="45" viewBox="0 0 100 45" fill="none" xmlns="http://www.w3.org/2000/svg">
<path fill-rule="evenodd" clip-rule="evenodd" d="M33.896 3.55744C35.8202 3.55744 37.3136 3.95951 38.4337 4.76366C39.525 5.5678 40.0707 6.80273 40.0994 8.43974C40.0994 9.24388 39.9271 10.048 39.5537 10.766C39.2378 11.4266 38.6922 11.9722 38.0316 12.2881V12.403C38.7783 12.7476 39.4101 13.2933 39.8696 14.0113C40.1568 14.4421 40.3579 14.9016 40.5015 15.3898C40.6738 15.9642 40.7599 16.596 40.7312 17.1992C40.7599 18.1182 40.5589 19.0085 40.1856 19.8126C39.8409 20.5593 39.2953 21.1912 38.6634 21.6794C38.0029 22.1963 37.2562 22.5697 36.452 22.7994C35.6192 23.0579 34.7289 23.1728 33.8673 23.1728H23.356V3.5H33.896V3.55744ZM28.4106 10.7947H33.0344C33.6088 10.8522 34.1545 10.6799 34.5853 10.3065C34.8725 9.99059 35.0448 9.5598 35.0161 9.12901C35.0161 8.72693 34.8725 8.32486 34.5853 8.00895C34.1545 7.63559 33.5801 7.46328 33.0344 7.52072H28.4106V10.7947ZM28.4106 19.2382H33.0919C33.8099 19.2957 34.5278 19.0946 35.0735 18.6351C35.4756 18.2043 35.6766 17.6587 35.6479 17.0556C35.7053 16.395 35.4469 15.7632 34.9586 15.3324C34.413 14.9303 33.7524 14.7293 33.0919 14.758H28.4106V19.2382ZM45.5264 23.23H40.1846L47.1347 3.58594H52.3042L59.4266 23.23H53.7976L52.8498 19.8124H46.5028L45.5264 23.23ZM49.6907 8.72671H49.5758L47.5367 16.0214H51.7011L49.6907 8.72671ZM65.2275 11.5961H65.3423L72.5509 23.2275H77.6342V3.55469H72.5796V14.5255H72.4648L65.7731 3.55469H60.1729V23.2275H65.2275V11.5961ZM84.6702 3.55469V10.4473L91.1321 3.55469H97.795L89.8685 11.0505L98.2545 23.2275H91.9075L86.1062 14.4968L84.6415 15.904V23.2275H79.5869V3.55469H84.6702ZM12.126 29.5449V26.2422H1.58594V29.5449H5.03227V41.1188H8.67963V29.5449H12.126ZM20.885 26.2422C21.4019 26.2422 21.9476 26.3571 22.4071 26.5581C22.8666 26.7591 23.2974 27.0751 23.6133 27.4771C23.9579 27.8792 24.2164 28.3387 24.3887 28.8557C24.5898 29.4013 24.6759 29.9757 24.6759 30.5501C24.7046 31.4117 24.4749 32.2445 24.0441 32.9912C23.6133 33.6805 23.0102 34.1975 22.2922 34.5421L24.4711 39.8502L29.0421 26.2422H32.7756L37.8867 41.1161V26.2422H41.9074L46.7323 34.5421H46.8185V26.2422H50.4658V41.1188H46.7897L41.6202 32.3307H41.5341V41.1188H37.8877H37.8867H33.8382L33.149 38.5341H28.5826L27.8933 41.1188H24.9918H24.0449H21.1147L18.8746 35.059H15.9452V41.1188H12.2979V26.2422H20.885ZM19.7936 31.9573C20.1383 31.9861 20.4829 31.8425 20.6839 31.5553C20.885 31.2968 20.9711 30.9809 20.9711 30.665C20.9711 30.5214 20.9424 30.3491 20.9137 30.2055C20.885 30.0619 20.7988 29.9183 20.7126 29.7747C20.6265 29.6598 20.4829 29.5449 20.3393 29.4588C20.167 29.3726 19.9947 29.3152 19.7936 29.3439H15.9739V31.9573H19.7936ZM30.8514 30.148H30.9089L32.3736 35.6622H29.3867L30.8514 30.148ZM54.3152 41.1799C55.0906 41.4097 55.8948 41.5245 56.6989 41.4958C57.4743 41.5245 58.2785 41.4097 59.0826 41.1512C59.7719 40.9789 60.4324 40.663 61.0068 40.2609C61.5525 39.8875 61.9833 39.3706 62.2992 38.7962C62.6151 38.1357 62.7874 37.4464 62.7587 36.7284C62.7874 36.0104 62.6438 35.2637 62.3566 34.6032C62.0982 34.0862 61.7248 33.6267 61.2653 33.2534C60.7771 32.88 60.2314 32.5928 59.657 32.3918C59.054 32.1908 58.3649 31.9898 57.6757 31.7888L57.6754 31.7887C57.2446 31.6738 56.8425 31.5589 56.4117 31.3866C56.1245 31.3004 55.866 31.1568 55.6363 30.9845C55.464 30.8696 55.3204 30.6973 55.2342 30.525C55.1481 30.3527 55.1193 30.1804 55.1193 29.9793C55.1481 29.6634 55.2917 29.3762 55.5501 29.1752C56.4404 28.6583 57.5318 28.687 58.3934 29.2614C58.7954 29.6634 59.0826 30.1804 59.1975 30.7548L62.3279 29.3762C62.1269 28.8306 61.8971 28.3423 61.5812 27.8541C61.294 27.4233 60.9207 27.05 60.4899 26.7628C60.0304 26.4469 59.5134 26.2171 58.9677 26.0735C58.3072 25.9012 57.5892 25.8438 56.9 25.8438C56.1245 25.8438 55.3491 25.9299 54.6024 26.1309C53.9419 26.3033 53.3387 26.5905 52.7931 26.9925C52.2761 27.3659 51.8741 27.8541 51.5869 28.3998C51.2997 28.9742 51.1561 29.6347 51.1561 30.2953C51.1561 30.8984 51.2709 31.5015 51.5007 32.0759C51.7305 32.5928 52.0751 33.0523 52.5059 33.4257C53.0228 33.8565 53.5685 34.2011 54.1716 34.4596C54.9183 34.7755 55.6937 35.0627 56.4979 35.2924L56.498 35.2925C56.8713 35.4073 57.2446 35.5222 57.6179 35.6945C57.8764 35.8094 58.1062 35.953 58.3072 36.1253C58.4508 36.2402 58.5657 36.4125 58.6518 36.6135C58.7093 36.8146 58.738 37.0156 58.738 37.2166C58.738 37.4177 58.6806 37.6474 58.5657 37.8197C58.4508 37.9921 58.3359 38.1357 58.1636 38.2218C57.9913 38.3367 57.819 38.3941 57.6179 38.4228L57.6178 38.4229C57.4168 38.4516 57.2158 38.4803 57.0148 38.4803C56.3256 38.509 55.6363 38.2793 55.0906 37.8197C54.5737 37.3028 54.2865 36.6135 54.2578 35.8668L50.7827 37.2741C50.9263 37.8485 51.1561 38.4229 51.4433 38.9685C51.7305 39.5142 52.1325 39.945 52.592 40.3183C53.109 40.6917 53.6834 40.9789 54.3152 41.1799ZM66.6645 31.7563H72.3222V35.059H66.6645V41.1188H63.0171V26.2422H74.0453V29.5449H66.6645V31.7563ZM85.3603 26.2422H74.332V41.1476H85.5613V37.8448H77.9794V34.858H84.4413V31.5553H77.9794V29.5449H85.3603V26.2422ZM94.4069 26.2422C94.9239 26.2422 95.4695 26.3571 95.9291 26.5581C96.3886 26.7591 96.8194 27.0751 97.1353 27.4771C97.4799 27.8792 97.7384 28.3387 97.9107 28.8557C98.1117 29.4013 98.1979 29.9757 98.1979 30.5501C98.2266 31.4117 97.9968 32.2445 97.5661 32.9912C97.1353 33.6805 96.5322 34.1975 95.8142 34.5421L98.5138 41.1188H94.6367L92.3966 35.059H89.4672V41.1188H85.8198V26.2422H94.4069ZM93.3156 31.9573C93.6602 31.9861 94.0049 31.8425 94.2059 31.5553C94.4069 31.2968 94.4931 30.9809 94.4931 30.665C94.4931 30.5214 94.4644 30.3491 94.4356 30.2055C94.4069 30.0619 94.3208 29.9183 94.2346 29.7747C94.1485 29.6598 94.0049 29.5449 93.8613 29.4588C93.6889 29.3726 93.5166 29.3152 93.3156 29.3439H89.4959V31.9573H93.3156ZM1.5 3.55469H21.4025V7.54669H1.5V3.55469ZM21.4025 11.0508H1.5V15.0428H21.4025V11.0508ZM1.5 19.2656H21.4025V23.2576H1.5V19.2656Z" fill="#010202"/>
</svg>
