<svg width="1059" height="485" viewBox="0 0 1059 485" fill="none" xmlns="http://www.w3.org/2000/svg">
<path fill-rule="evenodd" clip-rule="evenodd" d="M423.318 269.897V262.549H423.316L422.605 54.3117H514.435C510.98 30.3647 490.503 6.5835 445.942 6.5835L402.931 6.66183C402.521 96.6638 402.307 218.006 402.295 309.956H524.471C604.844 306.496 657.65 243.641 657.137 182.06C656.677 126.7 612.828 72.3735 546.195 63.1513C543.43 80.8475 529.631 97.1925 506.455 104.161C580.514 107.062 606.22 147.793 606.22 184.176C606.22 236.632 571.735 269.897 489.115 269.897H423.318ZM559.545 318.7H488.051H349.872L350.966 0.570312H460.762C518.5 0.570312 545.265 27.4639 546.656 54.3117H547.745C641.557 54.3117 701.35 117.472 702.603 182.095C703.855 246.65 646.674 312.676 559.545 318.7ZM485.327 102.612C503.735 99.5725 514.949 81.4624 514.962 61.7753L475.156 61.7792L475.808 222.776V262.537C529.697 261.649 559.684 227.027 559.684 184.598C559.682 147.601 541.204 112.011 485.649 110.967L485.327 102.612ZM260.169 436.852C258.474 440.993 257.627 445.479 257.627 450.311C257.627 455.142 258.474 459.66 260.169 463.864C261.926 468.006 264.341 471.645 267.416 474.782C270.553 477.857 274.193 480.273 278.334 482.03C282.538 483.724 287.056 484.571 291.888 484.571C296.719 484.571 301.206 483.724 305.347 482.03C309.551 480.273 313.19 477.857 316.265 474.782C319.402 471.645 321.818 468.006 323.512 463.864C325.269 459.66 326.148 455.142 326.148 450.311C326.148 445.479 325.269 440.993 323.512 436.852C321.818 432.647 319.402 429.008 316.265 425.934C313.19 422.796 309.551 420.38 305.347 418.686C301.206 416.929 296.719 416.051 291.888 416.051C287.056 416.051 282.538 416.929 278.334 418.686C274.193 420.38 270.553 422.796 267.416 425.934C264.341 429.008 261.926 432.647 260.169 436.852ZM268.169 467.159C265.91 462.327 264.781 456.711 264.781 450.311C264.781 443.911 265.91 438.326 268.169 433.557C270.491 428.726 273.659 424.992 277.675 422.357C281.754 419.659 286.491 418.31 291.888 418.31C297.284 418.31 302.021 419.659 306.1 422.357C310.178 425.055 313.347 428.82 315.606 433.651C317.865 438.42 318.994 443.973 318.994 450.311C318.994 456.648 317.865 462.233 315.606 467.064C313.347 471.896 310.178 475.661 306.1 478.359C302.021 480.994 297.284 482.312 291.888 482.312C286.491 482.312 281.754 480.994 277.675 478.359C273.597 475.661 270.428 471.927 268.169 467.159ZM0.0771484 483.253V417.368H13.16C19.9367 417.368 25.2075 418.78 28.9724 421.604C32.7372 424.428 34.6196 428.349 34.6196 433.369C34.6196 437.071 33.5216 440.24 31.3254 442.875C29.1292 445.448 26.0546 447.205 22.1015 448.146V448.711C27.4978 449.401 31.7019 451.284 34.7138 454.358C37.7884 457.37 39.3257 461.198 39.3257 465.841C39.3257 471.3 37.2237 475.567 33.0196 478.641C28.8155 481.716 22.9172 483.253 15.3248 483.253H0.0771484ZM13.2541 419.627H6.47739V447.864H13.16C23.0741 447.864 28.0312 443.158 28.0312 433.746C28.0312 424.333 23.1055 419.627 13.2541 419.627ZM15.3248 450.123H6.47739V480.994H15.3248C26.8076 480.994 32.549 475.849 32.549 465.559C32.549 455.268 26.8076 450.123 15.3248 450.123ZM76.0506 483.253V417.368H104.758V421.98L88.2864 419.816C85.4 419.439 83.4548 419.251 82.4509 419.251V447.958C83.2666 447.958 85.2118 447.864 88.2864 447.676L103.722 446.734V451.064L88.2864 450.123C85.2118 449.934 83.2666 449.84 82.4509 449.84V481.371C83.5803 481.371 85.5569 481.183 88.3805 480.806L105.04 478.641V483.253H76.0506ZM149.049 417.368H142.649V483.253H170.32V478.453L154.696 480.806C152.124 481.183 150.241 481.371 149.049 481.371V417.368ZM203.916 417.368H210.316V481.371C211.508 481.371 213.391 481.183 215.963 480.806L231.587 478.453V483.253H203.916V417.368ZM407.019 417.368H427.726C435.004 417.368 441.342 418.749 446.738 421.51C452.135 424.271 456.339 428.13 459.35 433.087C462.362 437.981 463.868 443.722 463.868 450.311C463.868 456.899 462.362 462.672 459.35 467.629C456.339 472.524 452.135 476.351 446.738 479.112C441.342 481.873 435.004 483.253 427.726 483.253H407.019V417.368ZM427.726 419.627H413.419V480.994H427.726C436.824 480.994 443.915 478.296 448.997 472.9C454.142 467.504 456.715 459.974 456.715 450.311C456.715 440.648 454.142 433.118 448.997 427.722C443.915 422.326 436.824 419.627 427.726 419.627ZM507.96 417.368H501.559V483.253H507.96V417.368ZM565.856 417.368H571.692L597.01 483.253H590.139L578.468 452.382H557.103L547.408 483.253H540.537L565.856 417.368ZM566.515 422.263L557.762 450.123H577.621L567.08 422.263H566.515ZM685.786 483.253H692.186V417.368H685.409L663.196 460.1H662.632L632.984 416.051H631.101L628.748 483.253H635.148L633.078 428.004H633.642L659.526 466.5H662.443L685.221 422.828H685.786V483.253ZM729.829 450.311C729.829 445.479 730.676 440.993 732.37 436.852C734.127 432.647 736.543 429.008 739.618 425.934C742.755 422.796 746.394 420.38 750.536 418.686C754.74 416.929 759.258 416.051 764.089 416.051C768.921 416.051 773.407 416.929 777.549 418.686C781.753 420.38 785.392 422.796 788.467 425.934C791.604 429.008 794.02 432.647 795.714 436.852C797.471 440.993 798.349 445.479 798.349 450.311C798.349 455.142 797.471 459.66 795.714 463.864C794.02 468.006 791.604 471.645 788.467 474.782C785.392 477.857 781.753 480.273 777.549 482.03C773.407 483.724 768.921 484.571 764.089 484.571C759.258 484.571 754.74 483.724 750.536 482.03C746.394 480.273 742.755 477.857 739.618 474.782C736.543 471.645 734.127 468.006 732.37 463.864C730.676 459.66 729.829 455.142 729.829 450.311ZM736.982 450.311C736.982 456.711 738.112 462.327 740.371 467.159C742.63 471.927 745.798 475.661 749.877 478.359C753.956 480.994 758.693 482.312 764.089 482.312C769.486 482.312 774.223 480.994 778.302 478.359C782.38 475.661 785.549 471.896 787.808 467.064C790.067 462.233 791.196 456.648 791.196 450.311C791.196 443.973 790.067 438.42 787.808 433.651C785.549 428.82 782.38 425.055 778.302 422.357C774.223 419.659 769.486 418.31 764.089 418.31C758.693 418.31 753.956 419.659 749.877 422.357C745.861 424.992 742.692 428.726 740.371 433.557C738.112 438.326 736.982 443.911 736.982 450.311ZM836.91 416.051L834.557 483.253H840.958L838.887 427.345H839.452L886.795 484.571H887.924L890.277 417.368H883.877L885.948 473.276H885.383L838.04 416.051H836.91ZM931.245 417.368H951.952C959.23 417.368 965.568 418.749 970.964 421.51C976.36 424.271 980.564 428.13 983.576 433.087C986.588 437.981 988.094 443.722 988.094 450.311C988.094 456.899 986.588 462.672 983.576 467.629C980.564 472.524 976.36 476.351 970.964 479.112C965.568 481.873 959.23 483.253 951.952 483.253H931.245V417.368ZM951.952 419.627H937.645V480.994H951.952C961.05 480.994 968.141 478.296 973.223 472.9C978.368 467.504 980.941 459.974 980.941 450.311C980.941 440.648 978.368 433.118 973.223 427.722C968.141 422.326 961.05 419.627 951.952 419.627ZM1021.17 475.535H1020.61L1020.04 481.183C1023.12 482.187 1026.35 483.002 1029.74 483.63C1033.13 484.257 1036.08 484.571 1038.59 484.571C1042.54 484.571 1045.99 483.818 1048.94 482.312C1051.95 480.806 1054.27 478.736 1055.9 476.1C1057.54 473.402 1058.35 470.296 1058.35 466.782C1058.35 462.955 1057.47 459.786 1055.72 457.276C1054.02 454.703 1051.83 452.507 1049.13 450.687C1046.49 448.868 1043.76 447.142 1040.94 445.511C1038.49 444.13 1036.2 442.718 1034.07 441.275C1031.93 439.769 1030.18 438.107 1028.8 436.287C1027.48 434.404 1026.82 432.177 1026.82 429.604C1026.82 426.153 1028.04 423.424 1030.49 421.416C1032.94 419.345 1036.17 418.31 1040.19 418.31C1045.77 418.31 1050.35 420.255 1053.93 424.145H1054.49L1054.96 418.874C1053.39 418.059 1051.17 417.4 1048.28 416.898C1045.39 416.333 1042.7 416.051 1040.19 416.051C1034.54 416.051 1029.99 417.525 1026.54 420.474C1023.09 423.361 1021.36 427.188 1021.36 431.957C1021.36 435.157 1022.15 437.918 1023.71 440.24C1025.28 442.499 1027.29 444.507 1029.74 446.264C1032.19 447.958 1034.76 449.589 1037.46 451.158C1041.35 453.417 1044.39 455.519 1046.59 457.464C1048.84 459.409 1050.44 461.323 1051.39 463.206C1052.39 465.088 1052.89 467.127 1052.89 469.323C1052.89 473.276 1051.57 476.445 1048.94 478.83C1046.3 481.151 1042.85 482.312 1038.59 482.312C1035.57 482.312 1032.53 481.716 1029.46 480.524C1026.38 479.332 1023.62 477.669 1021.17 475.535Z" fill="black"/>
</svg>
