<svg width="14" height="15" viewBox="0 0 14 15" fill="none" xmlns="http://www.w3.org/2000/svg">
<path d="M6.55746 8.06754L0.307465 1.81753C0.190188 1.70026 0.124304 1.5412 0.124304 1.37535C0.124304 1.20949 0.190188 1.05043 0.307465 0.933159C0.42474 0.815884 0.583799 0.749999 0.749652 0.749999C0.915504 0.749999 1.07456 0.815884 1.19184 0.933159L6.99965 6.74175L12.8075 0.93316C12.9247 0.815885 13.0838 0.75 13.2497 0.75C13.4155 0.75 13.5746 0.815885 13.6918 0.93316C13.8091 1.05044 13.875 1.2095 13.875 1.37535C13.875 1.5412 13.8091 1.70026 13.6918 1.81753L7.44184 8.06754C7.38379 8.12565 7.31486 8.17175 7.23899 8.2032C7.16312 8.23465 7.08179 8.25084 6.99965 8.25084C6.91752 8.25084 6.83619 8.23465 6.76031 8.2032C6.68444 8.17174 6.61551 8.12565 6.55746 8.06754ZM7.44184 14.3175L13.6918 8.06754C13.8091 7.95026 13.875 7.7912 13.875 7.62535C13.875 7.4595 13.8091 7.30044 13.6918 7.18316C13.5746 7.06588 13.4155 7 13.2497 7C13.0838 7 12.9247 7.06588 12.8075 7.18316L6.99965 12.9918L1.19184 7.18316C1.07456 7.06588 0.915504 7 0.749652 7C0.583799 7 0.42474 7.06588 0.307464 7.18316C0.190188 7.30043 0.124304 7.45949 0.124304 7.62535C0.124304 7.7912 0.190188 7.95026 0.307464 8.06753L6.55746 14.3175C6.61551 14.3756 6.68444 14.4217 6.76031 14.4532C6.83619 14.4847 6.91752 14.5008 6.99965 14.5008C7.08179 14.5008 7.16312 14.4847 7.23899 14.4532C7.31486 14.4217 7.38379 14.3756 7.44184 14.3175Z" fill="white"/>
</svg>
