<svg width="39" height="34" viewBox="0 0 39 34" fill="none" xmlns="http://www.w3.org/2000/svg">
<path d="M29.1831 9.98339C34.1807 12.2277 37.6667 17.2954 37.6667 23.1875V29.375C37.6667 31.6532 35.8426 33.5 33.5926 33.5H21.3704C16.0487 33.5 11.5215 30.0564 9.84362 25.25M29.1831 9.98339C27.897 4.5437 23.063 0.5 17.2963 0.5H15.2593C7.38409 0.5 1 6.96389 1 14.9375V21.125C1 23.4032 2.82402 25.25 5.07407 25.25H9.84362M29.1831 9.98339C29.4024 10.911 29.5185 11.8793 29.5185 12.875C29.5185 19.7095 24.0464 25.25 17.2963 25.25H9.84362" stroke="white" stroke-linejoin="round"/>
</svg>
