<svg width="60" height="60" viewBox="0 0 60 60" fill="none" xmlns="http://www.w3.org/2000/svg">
<path d="M30 0.5C46.2924 0.5 59.5 13.7076 59.5 30C59.5 46.2924 46.2924 59.5 30 59.5C13.7076 59.5 0.5 46.2924 0.5 30C0.5 13.7076 13.7076 0.5 30 0.5Z" fill="#151515"/>
<path d="M30 0.5C46.2924 0.5 59.5 13.7076 59.5 30C59.5 46.2924 46.2924 59.5 30 59.5C13.7076 59.5 0.5 46.2924 0.5 30C0.5 13.7076 13.7076 0.5 30 0.5Z" stroke="url(#paint0_linear_1_171)"/>
<path fill-rule="evenodd" clip-rule="evenodd" d="M33.7128 34.7729C34.0057 35.0658 34.4805 35.0658 34.7734 34.7729C35.0663 34.48 35.0663 34.0052 34.7734 33.7123L31.0611 30L34.7734 26.2877C35.0663 25.9948 35.0663 25.5199 34.7734 25.227C34.4805 24.9341 34.0057 24.9341 33.7128 25.227L30.0005 28.9393L26.2882 25.227C25.9953 24.9341 25.5204 24.9341 25.2275 25.227C24.9346 25.5199 24.9346 25.9948 25.2275 26.2877L28.9398 30L25.2275 33.7123C24.9346 34.0052 24.9346 34.4801 25.2275 34.773C25.5204 35.0659 25.9952 35.0659 26.2881 34.773L30.0005 31.0606L33.7128 34.7729Z" fill="white"/>
<defs>
<linearGradient id="paint0_linear_1_171" x1="76.7708" y1="30" x2="14.6756" y2="57.9832" gradientUnits="userSpaceOnUse">
<stop stop-color="white" stop-opacity="0"/>
<stop offset="0.4375" stop-color="white"/>
<stop offset="0.889423" stop-color="white" stop-opacity="0"/>
</linearGradient>
</defs>
</svg>
