<svg width="10" height="11" viewBox="0 0 10 11" fill="none" xmlns="http://www.w3.org/2000/svg">
<path fill-rule="evenodd" clip-rule="evenodd" d="M8.71277 10.2729C9.00567 10.5658 9.48054 10.5658 9.77343 10.2729C10.0663 9.98004 10.0663 9.50517 9.77343 9.21228L6.06114 5.49998L9.77342 1.7877C10.0663 1.49481 10.0663 1.01993 9.77342 0.727038C9.48053 0.434145 9.00566 0.434145 8.71276 0.727038L5.00048 4.43932L1.28815 0.726994C0.995258 0.434101 0.520385 0.434101 0.227491 0.726994C-0.0654019 1.01989 -0.0654023 1.49476 0.227491 1.78765L3.93982 5.49998L0.227483 9.21232C-0.065411 9.50521 -0.0654107 9.98009 0.227483 10.273C0.520376 10.5659 0.995249 10.5659 1.28814 10.273L5.00048 6.56064L8.71277 10.2729Z" fill="white"/>
</svg>
