<svg width="15" height="15" viewBox="0 0 15 15" fill="none" xmlns="http://www.w3.org/2000/svg">
<path d="M8.06754 7.94254L1.81753 14.1925C1.70026 14.3098 1.5412 14.3757 1.37535 14.3757C1.2095 14.3757 1.05044 14.3098 0.93316 14.1925C0.815885 14.0753 0.75 13.9162 0.75 13.7503C0.75 13.5845 0.815885 13.4254 0.93316 13.3082L6.74175 7.50035L0.93316 1.69253C0.815885 1.57526 0.75 1.4162 0.75 1.25035C0.75 1.0845 0.815885 0.925435 0.93316 0.80816C1.05044 0.690885 1.2095 0.625 1.37535 0.625C1.5412 0.625 1.70026 0.690885 1.81753 0.80816L8.06754 7.05816C8.12565 7.11621 8.17175 7.18514 8.2032 7.26101C8.23465 7.33688 8.25084 7.41821 8.25084 7.50035C8.25084 7.58248 8.23465 7.66381 8.2032 7.73969C8.17175 7.81556 8.12565 7.88449 8.06754 7.94254ZM14.3175 7.05816L8.06754 0.80816C7.95026 0.690885 7.7912 0.625 7.62535 0.625C7.4595 0.625 7.30044 0.690885 7.18316 0.80816C7.06588 0.925435 7 1.0845 7 1.25035C7 1.4162 7.06588 1.57526 7.18316 1.69253L12.9918 7.50035L7.18316 13.3082C7.06588 13.4254 7 13.5845 7 13.7503C7 13.9162 7.06588 14.0753 7.18316 14.1925C7.30044 14.3098 7.4595 14.3757 7.62535 14.3757C7.7912 14.3757 7.95026 14.3098 8.06754 14.1925L14.3175 7.94254C14.3756 7.88449 14.4217 7.81556 14.4532 7.73969C14.4847 7.66381 14.5008 7.58248 14.5008 7.50035C14.5008 7.41821 14.4847 7.33688 14.4532 7.26101C14.4217 7.18514 14.3756 7.11621 14.3175 7.05816Z" fill="white"/>
</svg>
