<svg width="18" height="19" viewBox="0 0 18 19" fill="none" xmlns="http://www.w3.org/2000/svg">
<path d="M10.0938 8.70831C10.0938 8.55084 10.0312 8.39982 9.91984 8.28847C9.80849 8.17712 9.65747 8.11456 9.5 8.11456C9.34253 8.11456 9.19151 8.17712 9.08016 8.28847C8.96881 8.39982 8.90625 8.55084 8.90625 8.70831V13.4583C8.90625 13.6158 8.96881 13.7668 9.08016 13.8782C9.19151 13.9895 9.34253 14.0521 9.5 14.0521C9.65747 14.0521 9.80849 13.9895 9.91984 13.8782C10.0312 13.7668 10.0938 13.6158 10.0938 13.4583V8.70831Z" fill="white"/>
<path fill-rule="evenodd" clip-rule="evenodd" d="M9.4987 0.989563C4.79857 0.989563 0.988281 4.79985 0.988281 9.49998C0.988281 14.2001 4.79857 18.0104 9.4987 18.0104C14.1988 18.0104 18.0091 14.2001 18.0091 9.49998C18.0091 4.79985 14.1988 0.989563 9.4987 0.989563ZM2.17578 9.49998C2.17578 7.55782 2.9473 5.69521 4.32061 4.3219C5.69393 2.94858 7.55654 2.17706 9.4987 2.17706C11.4409 2.17706 13.3035 2.94858 14.6768 4.3219C16.0501 5.69521 16.8216 7.55782 16.8216 9.49998C16.8216 11.4421 16.0501 13.3048 14.6768 14.6781C13.3035 16.0514 11.4409 16.8229 9.4987 16.8229C7.55654 16.8229 5.69393 16.0514 4.32061 14.6781C2.9473 13.3048 2.17578 11.4421 2.17578 9.49998Z" fill="white"/>
<path d="M10.2904 6.33329C10.2904 6.54326 10.207 6.74462 10.0585 6.89309C9.91002 7.04155 9.70866 7.12496 9.4987 7.12496C9.28873 7.12496 9.08737 7.04155 8.93891 6.89309C8.79044 6.74462 8.70703 6.54326 8.70703 6.33329C8.70703 6.12333 8.79044 5.92197 8.93891 5.7735C9.08737 5.62503 9.28873 5.54163 9.4987 5.54163C9.70866 5.54163 9.91002 5.62503 10.0585 5.7735C10.207 5.92197 10.2904 6.12333 10.2904 6.33329Z" fill="white"/>
</svg>
