<svg width="20" height="18" viewBox="0 0 20 18" fill="none" xmlns="http://www.w3.org/2000/svg">
<path d="M1 4.00012H4M4 4.00012C4 5.65698 5.34315 7.00012 7 7.00012C8.65685 7.00012 10 5.65698 10 4.00012C10 2.34327 8.65685 1.00012 7 1.00012C5.34315 1.00012 4 2.34327 4 4.00012ZM1 14.0001H7M16 14.0001H19M16 14.0001C16 15.657 14.6569 17.0001 13 17.0001C11.3431 17.0001 10 15.657 10 14.0001C10 12.3433 11.3431 11.0001 13 11.0001C14.6569 11.0001 16 12.3433 16 14.0001ZM13 4.00012H19" stroke="white" stroke-linecap="round"/>
</svg>
