<svg width="22" height="22" viewBox="0 0 22 22" fill="#111" xmlns="http://www.w3.org/2000/svg">
<path d="M3 10.0001H19M3 10.0001C1.89543 10.0001 1 9.10469 1 8.00012V7.00012C1 5.89555 1.89543 5.00012 3 5.00012H19C20.1046 5.00012 21 5.89555 21 7.00012V8.00012C21 9.10469 20.1046 10.0001 19 10.0001M3 10.0001L3 19.0001C3 20.1047 3.89543 21.0001 5 21.0001H17C18.1046 21.0001 19 20.1047 19 19.0001V10.0001M11 5.00012H15C16.1046 5.00012 17 4.10469 17 3.00012C17 1.89555 16.1046 1.00012 15 1.00012C12.7909 1.00012 11 2.79098 11 5.00012ZM11 5.00012H7C5.89543 5.00012 5 4.10469 5 3.00012C5 1.89555 5.89543 1.00012 7 1.00012C9.20914 1.00012 11 2.79098 11 5.00012ZM11 5.00012V21.0001" stroke="white" stroke-linecap="round"/>
</svg>
