<svg width="22" height="22" viewBox="0 0 22 22" fill="none" xmlns="http://www.w3.org/2000/svg">
<path d="M3 10H19M3 10C1.89543 10 1 9.10457 1 8V7C1 5.89543 1.89543 5 3 5H19C20.1046 5 21 5.89543 21 7V8C21 9.10457 20.1046 10 19 10M3 10L3 19C3 20.1046 3.89543 21 5 21H17C18.1046 21 19 20.1046 19 19V10M11 5H15C16.1046 5 17 4.10457 17 3C17 1.89543 16.1046 1 15 1C12.7909 1 11 2.79086 11 5ZM11 5H7C5.89543 5 5 4.10457 5 3C5 1.89543 5.89543 1 7 1C9.20914 1 11 2.79086 11 5ZM11 5V21" stroke="black" stroke-linecap="round"/>
</svg>
