<svg width="22" height="22" viewBox="0 0 22 22" fill="none" xmlns="http://www.w3.org/2000/svg">
<ellipse cx="11" cy="10.6636" rx="4" ry="10" stroke="white"/>
<path d="M20.9962 10.3841C19.1938 11.8652 15.3949 12.8858 11 12.8858C6.60511 12.8858 2.80619 11.8652 1.00383 10.3841M20.9962 10.3841C20.8482 4.99048 16.4294 0.663574 11 0.663574C5.57061 0.663574 1.15183 4.99048 1.00383 10.3841M20.9962 10.3841C20.9987 10.477 21 10.5701 21 10.6636C21 16.1864 16.5228 20.6636 11 20.6636C5.47715 20.6636 1 16.1864 1 10.6636C1 10.5701 1.00128 10.477 1.00383 10.3841" stroke="white"/>
</svg>
