<svg width="38" height="25" viewBox="0 0 38 25" fill="none" xmlns="http://www.w3.org/2000/svg">
<g clip-path="url(#clip0_1816_19401)">
<path opacity="0.07" d="M35 0.663574H3C1.3 0.663574 0 1.96357 0 3.66357V21.6636C0 23.3636 1.4 24.6636 3 24.6636H35C36.7 24.6636 38 23.3636 38 21.6636V3.66357C38 1.96357 36.6 0.663574 35 0.663574Z" fill="black"/>
<path d="M35 1.66357C36.1 1.66357 37 2.56357 37 3.66357V21.6636C37 22.7636 36.1 23.6636 35 23.6636H3C1.9 23.6636 1 22.7636 1 21.6636V3.66357C1 2.56357 1.9 1.66357 3 1.66357H35Z" fill="#151515"/>
<path d="M18.0922 12.6398V15.8398H17.0742V7.9398H19.7652C20.0876 7.93435 20.408 7.99267 20.7078 8.11143C21.0076 8.23019 21.281 8.40703 21.5122 8.6318C21.7313 8.8362 21.9079 9.08176 22.0319 9.35444C22.156 9.62713 22.2251 9.92159 22.2354 10.221C22.2456 10.5204 22.1967 10.8189 22.0915 11.0994C21.9863 11.3799 21.8268 11.637 21.6222 11.8558L21.5122 11.9718C21.0422 12.4188 20.4142 12.6618 19.7652 12.6458L18.0922 12.6398ZM18.0922 8.9078V11.6958H19.7902C20.1672 11.7078 20.5312 11.5608 20.7952 11.2918C20.9841 11.095 21.1109 10.847 21.1598 10.5786C21.2088 10.3103 21.1779 10.0335 21.0708 9.78263C20.9637 9.53177 20.7852 9.31794 20.5575 9.16773C20.3298 9.01751 20.063 8.93756 19.7902 8.9378L18.0922 8.9078ZM24.5762 10.2558C25.2262 10.2258 25.8622 10.4438 26.3542 10.8688C26.7992 11.2988 27.0362 11.8988 27.0042 12.5178V15.8518H26.0352V15.0858H25.9862C25.8124 15.3731 25.5667 15.6101 25.2733 15.7734C24.9799 15.9367 24.649 16.0206 24.3132 16.0168C23.7651 16.0345 23.2306 15.8441 22.8172 15.4838C22.6213 15.324 22.4644 15.1218 22.3582 14.8924C22.252 14.6631 22.1993 14.4125 22.2042 14.1598C22.1927 13.9044 22.2423 13.6499 22.3489 13.4176C22.4555 13.1852 22.6161 12.9816 22.8172 12.8238C23.3106 12.469 23.9078 12.2878 24.5152 12.3088C25.0322 12.2888 25.5452 12.4018 26.0052 12.6398V12.4318C26.0086 12.2598 25.9728 12.0893 25.9006 11.9332C25.8283 11.7771 25.7215 11.6395 25.5882 11.5308C25.3206 11.2875 24.9699 11.1558 24.6082 11.1628C24.3455 11.1603 24.0866 11.2249 23.8558 11.3503C23.625 11.4758 23.43 11.658 23.2892 11.8798L22.3942 11.3158C22.6372 10.9676 22.9653 10.6874 23.3473 10.5019C23.7292 10.3163 24.1523 10.2316 24.5762 10.2558ZM23.2892 14.1838C23.2868 14.3133 23.3163 14.4414 23.3751 14.5569C23.4338 14.6723 23.5201 14.7715 23.6262 14.8458C23.8492 15.0218 24.1262 15.1148 24.4112 15.1088C24.8402 15.1078 25.2512 14.9388 25.5572 14.6368C25.8622 14.3508 26.0352 13.9518 26.0352 13.5338C25.6503 13.2601 25.1825 13.128 24.7112 13.1598C24.3453 13.1454 23.9844 13.2484 23.6812 13.4538C23.5611 13.5341 23.4626 13.6427 23.3943 13.77C23.3259 13.8972 23.2899 14.0393 23.2892 14.1838ZM32.5752 10.4338L29.1852 18.2238H28.1372L29.4182 15.4958L27.1942 10.4338H28.2972L29.9092 14.3188L31.4782 10.4338H32.5752Z" fill="#6D6D6D"/>
<path d="M13.986 11.9473C13.986 11.6393 13.962 11.3313 13.913 11.0273H9.62305V12.7743H12.074C12.0241 13.052 11.9187 13.3167 11.7641 13.5526C11.6094 13.7885 11.4087 13.9908 11.174 14.1473V15.2813H12.638C13.0832 14.8506 13.4331 14.3314 13.6653 13.7572C13.8975 13.1829 14.0067 12.5664 13.986 11.9473Z" fill="#4285F4"/>
<path d="M9.62817 16.3845C10.7345 16.4149 11.8108 16.0226 12.6382 15.2875L11.1722 14.1475C10.8199 14.3734 10.4208 14.5159 10.0052 14.5643C9.58957 14.6127 9.16838 14.5657 8.77365 14.4269C8.37893 14.2881 8.02106 14.061 7.72726 13.7631C7.43346 13.4652 7.21147 13.1042 7.07817 12.7075H5.57617V13.8775C5.95202 14.6306 6.53022 15.264 7.24593 15.7068C7.96164 16.1496 8.78655 16.3843 9.62817 16.3845Z" fill="#34A853"/>
<path d="M7.07893 12.7136C6.88872 12.1509 6.88872 11.5413 7.07893 10.9786V9.80859H5.57693C5.25672 10.44 5.08984 11.1381 5.08984 11.8461C5.08984 12.5541 5.25672 13.2521 5.57693 13.8836L7.07893 12.7136Z" fill="#FBBC04"/>
<path d="M9.62817 9.10376C10.2752 9.09194 10.9006 9.33637 11.3682 9.78376L12.6682 8.49076C11.8393 7.71277 10.7398 7.28842 9.60317 7.30776C8.76654 7.31196 7.94741 7.54777 7.2366 7.98904C6.5258 8.43032 5.95108 9.05982 5.57617 9.80776L7.07817 10.9788C7.25379 10.4388 7.59426 9.96757 8.05168 9.63123C8.5091 9.2949 9.06045 9.11042 9.62817 9.10376Z" fill="#EA4335"/>
</g>
<defs>
<clipPath id="clip0_1816_19401">
<rect width="38" height="24" fill="white" transform="translate(0 0.663574)"/>
</clipPath>
</defs>
</svg>
