<svg width="17" height="18" viewBox="0 0 17 18" fill="none" xmlns="http://www.w3.org/2000/svg">
<path d="M7.71896 9.53055L15.219 17.0306C15.3597 17.1713 15.5506 17.2503 15.7496 17.2503C15.9486 17.2503 16.1395 17.1713 16.2802 17.0306C16.4209 16.8898 16.5 16.699 16.5 16.4999C16.5 16.3009 16.4209 16.11 16.2802 15.9693L9.3099 8.99993L16.2802 2.03055C16.4209 1.88982 16.5 1.69895 16.5 1.49993C16.5 1.30091 16.4209 1.11003 16.2802 0.969304C16.1395 0.828573 15.9486 0.749512 15.7496 0.749512C15.5506 0.749512 15.3597 0.828573 15.219 0.969304L7.71896 8.4693C7.64923 8.53896 7.59391 8.62168 7.55616 8.71272C7.51842 8.80377 7.49899 8.90137 7.49899 8.99993C7.49899 9.09849 7.51842 9.19608 7.55616 9.28713C7.59391 9.37818 7.64923 9.4609 7.71896 9.53055ZM0.218956 8.4693L7.71896 0.969304C7.85969 0.828573 8.05056 0.749512 8.24958 0.749512C8.44861 0.749512 8.63948 0.828573 8.78021 0.969304C8.92094 1.11003 9 1.30091 9 1.49993C9 1.69895 8.92094 1.88982 8.78021 2.03055L1.80989 8.99993L8.78021 15.9693C8.92094 16.11 9 16.3009 9 16.4999C9 16.699 8.92094 16.8898 8.78021 17.0306C8.63948 17.1713 8.44861 17.2503 8.24958 17.2503C8.05056 17.2503 7.85969 17.1713 7.71896 17.0306L0.218956 9.53055C0.149225 9.4609 0.0939045 9.37818 0.0561619 9.28713C0.0184193 9.19608 -0.00100708 9.09849 -0.00100708 8.99993C-0.00100708 8.90137 0.0184193 8.80377 0.0561619 8.71272C0.0939045 8.62168 0.149225 8.53896 0.218956 8.4693Z" fill="white"/>
</svg>
