<svg width="38" height="25" viewBox="0 0 38 25" fill="none" xmlns="http://www.w3.org/2000/svg">
<g clip-path="url(#clip0_1816_19419)">
<path opacity="0.07" d="M35 0.663574H3C1.3 0.663574 0 1.96357 0 3.66357V21.6636C0 23.3636 1.4 24.6636 3 24.6636H35C36.7 24.6636 38 23.3636 38 21.6636V3.66357C38 1.96357 36.6 0.663574 35 0.663574Z" fill="black"/>
<path d="M35 1.66357C36.1 1.66357 37 2.56357 37 3.66357V21.6636C37 22.7636 36.1 23.6636 35 23.6636H3C1.9 23.6636 1 22.7636 1 21.6636V3.66357C1 2.56357 1.9 1.66357 3 1.66357H35Z" fill="#151515"/>
<path d="M15 19.6636C18.866 19.6636 22 16.5296 22 12.6636C22 8.79758 18.866 5.66357 15 5.66357C11.134 5.66357 8 8.79758 8 12.6636C8 16.5296 11.134 19.6636 15 19.6636Z" fill="#EB001B"/>
<path d="M23 19.6636C26.866 19.6636 30 16.5296 30 12.6636C30 8.79758 26.866 5.66357 23 5.66357C19.134 5.66357 16 8.79758 16 12.6636C16 16.5296 19.134 19.6636 23 19.6636Z" fill="#00A2E5"/>
<path d="M22 12.6634C22 10.2634 20.8 8.16338 19 6.96338C17.2 8.26338 16 10.3634 16 12.6634C16 14.9634 17.2 17.1634 19 18.3634C20.8 17.1634 22 15.0634 22 12.6634Z" fill="#7375CF"/>
<g clip-path="url(#clip1_1816_19419)">
<path opacity="0.07" d="M35 0.663574H3C1.3 0.663574 0 1.96357 0 3.66357V21.6636C0 23.3636 1.4 24.6636 3 24.6636H35C36.7 24.6636 38 23.3636 38 21.6636V3.66357C38 1.96357 36.6 0.663574 35 0.663574Z" fill="black"/>
<path d="M35 1.66357C36.1 1.66357 37 2.56357 37 3.66357V21.6636C37 22.7636 36.1 23.6636 35 23.6636H3C1.9 23.6636 1 22.7636 1 21.6636V3.66357C1 2.56357 1.9 1.66357 3 1.66357H35Z" fill="#151515"/>
<path d="M15 19.6636C18.866 19.6636 22 16.5296 22 12.6636C22 8.79758 18.866 5.66357 15 5.66357C11.134 5.66357 8 8.79758 8 12.6636C8 16.5296 11.134 19.6636 15 19.6636Z" fill="#EB001B"/>
<path d="M23 19.6636C26.866 19.6636 30 16.5296 30 12.6636C30 8.79758 26.866 5.66357 23 5.66357C19.134 5.66357 16 8.79758 16 12.6636C16 16.5296 19.134 19.6636 23 19.6636Z" fill="#F79E1B"/>
<path d="M22 12.6634C22 10.2634 20.8 8.16338 19 6.96338C17.2 8.26338 16 10.3634 16 12.6634C16 14.9634 17.2 17.1634 19 18.3634C20.8 17.1634 22 15.0634 22 12.6634Z" fill="#FF5F00"/>
</g>
</g>
<defs>
<clipPath id="clip0_1816_19419">
<rect width="38" height="24" fill="white" transform="translate(0 0.663574)"/>
</clipPath>
<clipPath id="clip1_1816_19419">
<rect width="38" height="24" fill="white" transform="translate(0 0.663574)"/>
</clipPath>
</defs>
</svg>
