<svg width="38" height="25" viewBox="0 0 38 25" fill="none" xmlns="http://www.w3.org/2000/svg">
<g clip-path="url(#clip0_1816_19409)">
<path opacity="0.07" d="M35 0.663574H3C1.3 0.663574 0 1.96357 0 3.66357V21.6636C0 23.3636 1.4 24.6636 3 24.6636H35C36.7 24.6636 38 23.3636 38 21.6636V3.66357C38 1.96357 36.6 0.663574 35 0.663574Z" fill="black"/>
<path d="M35 1.66357C36.1 1.66357 37 2.56357 37 3.66357V21.6636C37 22.7636 36.1 23.6636 35 23.6636H3C1.9 23.6636 1 22.7636 1 21.6636V3.66357C1 2.56357 1.9 1.66357 3 1.66357H35Z" fill="#151515"/>
<path d="M23.9 8.96357C24.1 7.96357 23.9 7.26357 23.3 6.66357C22.7 5.96357 21.6 5.66357 20.2 5.66357H16.1C15.8 5.66357 15.6 5.86357 15.5 6.16357L14 16.2636C14 16.4636 14.1 16.6636 14.3 16.6636H17L17.4 13.2636L19.2 11.0636L23.9 8.96357Z" fill="#003087"/>
<path d="M23.8996 8.96338L23.6996 9.16338C23.1996 11.9634 21.4996 12.9634 19.0996 12.9634H17.9996C17.6996 12.9634 17.4996 13.1634 17.3996 13.4634L16.7996 17.3634L16.5996 18.3634C16.5996 18.5634 16.6996 18.7634 16.8996 18.7634H18.9996C19.2996 18.7634 19.4996 18.5634 19.4996 18.3634V18.2634L19.8996 15.8634V15.7634C19.8996 15.5634 20.1996 15.3634 20.3996 15.3634H20.6996C22.7996 15.3634 24.3996 14.5634 24.7996 12.1634C24.9996 11.1634 24.8996 10.3634 24.3996 9.76338C24.2996 9.26338 24.0996 9.06338 23.8996 8.96338Z" fill="#3086C8"/>
<path d="M23.3004 8.76338C23.2004 8.66338 23.1004 8.66338 23.0004 8.66338C22.9004 8.66338 22.8004 8.66338 22.7004 8.56338C22.4004 8.46338 22.0004 8.46338 21.6004 8.46338H18.6004C18.5004 8.46338 18.4004 8.46338 18.4004 8.56338C18.2004 8.66338 18.1004 8.76338 18.1004 8.96338L17.4004 13.3634V13.4634C17.4004 13.1634 17.7004 12.9634 18.0004 12.9634H19.3004C21.8004 12.9634 23.4004 11.9634 23.9004 9.16338V8.96338C23.8004 8.86338 23.6004 8.76338 23.4004 8.76338H23.3004Z" fill="#012169"/>
</g>
<defs>
<clipPath id="clip0_1816_19409">
<rect width="38" height="24" fill="white" transform="translate(0 0.663574)"/>
</clipPath>
</defs>
</svg>
