<svg width="16" height="20" viewBox="0 0 16 20" fill="none" xmlns="http://www.w3.org/2000/svg">
<path d="M11.5719 5C11.5719 6.97245 9.97293 8.57143 8.00049 8.57143V9.42857C10.4463 9.42857 12.4291 7.44583 12.4291 5H11.5719ZM8.00049 8.57143C6.02804 8.57143 4.42906 6.97245 4.42906 5H3.57192C3.57192 7.44583 5.55466 9.42857 8.00049 9.42857V8.57143ZM4.42906 5C4.42906 3.02755 6.02804 1.42857 8.00049 1.42857V0.571429C5.55466 0.571429 3.57192 2.55417 3.57192 5H4.42906ZM8.00049 1.42857C9.97293 1.42857 11.5719 3.02755 11.5719 5H12.4291C12.4291 2.55417 10.4463 0.571429 8.00049 0.571429V1.42857ZM14.5719 15.5C14.5719 16.2167 13.9798 16.981 12.7586 17.5915C11.563 18.1893 9.88138 18.5714 8.00049 18.5714V19.4286C9.98559 19.4286 11.804 19.0272 13.1419 18.3582C14.4542 17.702 15.4291 16.7163 15.4291 15.5H14.5719ZM8.00049 18.5714C6.1196 18.5714 4.43796 18.1893 3.2424 17.5915C2.02121 16.981 1.42906 16.2167 1.42906 15.5H0.571917C0.571917 16.7163 1.54677 17.702 2.85908 18.3582C4.19702 19.0272 6.01538 19.4286 8.00049 19.4286V18.5714ZM1.42906 15.5C1.42906 14.7833 2.02121 14.019 3.2424 13.4085C4.43796 12.8107 6.1196 12.4286 8.00049 12.4286V11.5714C6.01538 11.5714 4.19702 11.9728 2.85908 12.6418C1.54677 13.298 0.571917 14.2837 0.571917 15.5H1.42906ZM8.00049 12.4286C9.88138 12.4286 11.563 12.8107 12.7586 13.4085C13.9798 14.019 14.5719 14.7833 14.5719 15.5H15.4291C15.4291 14.2837 14.4542 13.298 13.1419 12.6418C11.804 11.9728 9.98559 11.5714 8.00049 11.5714V12.4286Z" fill="#09090A"/>
</svg>
