<svg width="24" height="25" viewBox="0 0 24 25" fill="none" xmlns="http://www.w3.org/2000/svg">
<path d="M6 20.6643C3.57111 18.8399 2 15.9352 2 12.6636C2 7.14073 6.47715 2.66357 12 2.66357C17.5228 2.66357 22 7.14073 22 12.6636C22 18.1864 17.5228 22.6636 12 22.6636C10.9064 22.6636 9.8538 22.488 8.86884 22.1636L11.5 12.1636" stroke="white" stroke-linecap="round" stroke-linejoin="round"/>
<path d="M10.1725 17.3191C10.7386 17.5415 11.355 17.6636 12 17.6636C14.7614 17.6636 17 15.425 17 12.6636C17 9.90215 14.7614 7.66357 12 7.66357C9.23858 7.66357 7 9.90215 7 12.6636C7 13.5743 7.24349 14.4281 7.66891 15.1636" stroke="white" stroke-linecap="round"/>
</svg>
