<svg width="16" height="20" viewBox="0 0 16 20" fill="none" xmlns="http://www.w3.org/2000/svg">
<path d="M11.5714 5C11.5714 6.97245 9.97245 8.57143 8 8.57143V9.42857C10.4458 9.42857 12.4286 7.44583 12.4286 5H11.5714ZM8 8.57143C6.02755 8.57143 4.42857 6.97245 4.42857 5H3.57143C3.57143 7.44583 5.55417 9.42857 8 9.42857V8.57143ZM4.42857 5C4.42857 3.02755 6.02755 1.42857 8 1.42857V0.571429C5.55417 0.571429 3.57143 2.55417 3.57143 5H4.42857ZM8 1.42857C9.97245 1.42857 11.5714 3.02755 11.5714 5H12.4286C12.4286 2.55417 10.4458 0.571429 8 0.571429V1.42857ZM14.5714 15.5C14.5714 16.2167 13.9793 16.981 12.7581 17.5915C11.5625 18.1893 9.88089 18.5714 8 18.5714V19.4286C9.9851 19.4286 11.8035 19.0272 13.1414 18.3582C14.4537 17.702 15.4286 16.7163 15.4286 15.5H14.5714ZM8 18.5714C6.11911 18.5714 4.43747 18.1893 3.24192 17.5915C2.02072 16.981 1.42857 16.2167 1.42857 15.5H0.571429C0.571429 16.7163 1.54628 17.702 2.85859 18.3582C4.19653 19.0272 6.0149 19.4286 8 19.4286V18.5714ZM1.42857 15.5C1.42857 14.7833 2.02072 14.019 3.24192 13.4085C4.43747 12.8107 6.11911 12.4286 8 12.4286V11.5714C6.0149 11.5714 4.19653 11.9728 2.85859 12.6418C1.54628 13.298 0.571429 14.2837 0.571429 15.5H1.42857ZM8 12.4286C9.88089 12.4286 11.5625 12.8107 12.7581 13.4085C13.9793 14.019 14.5714 14.7833 14.5714 15.5H15.4286C15.4286 14.2837 14.4537 13.298 13.1414 12.6418C11.8035 11.9728 9.9851 11.5714 8 11.5714V12.4286Z" fill="white"/>
</svg>
