<svg width="38" height="25" viewBox="0 0 38 25" fill="none" xmlns="http://www.w3.org/2000/svg">
<g clip-path="url(#clip0_1816_19415)">
<path opacity="0.07" d="M35 0.663574H3C1.3 0.663574 0 1.96357 0 3.66357V21.6636C0 23.3636 1.4 24.6636 3 24.6636H35C36.7 24.6636 38 23.3636 38 21.6636V3.66357C38 1.96357 36.6 0.663574 35 0.663574Z" fill="black"/>
<path d="M35.889 0.663574C37.05 0.663574 38 1.64557 38 2.84557V22.4816C38 23.6816 37.05 24.6636 35.889 24.6636H2.11C0.95 24.6636 0 23.6816 0 22.4816V2.84557C0 1.64557 0.95 0.663574 2.111 0.663574H35.889Z" fill="#5A31F4"/>
<path d="M9.34903 12.0316C8.33203 11.8086 7.87903 11.7216 7.87903 11.3266C7.87903 10.9546 8.18503 10.7686 8.79903 10.7686C9.33903 10.7686 9.73303 11.0066 10.024 11.4726C10.0343 11.4899 10.0508 11.5026 10.0701 11.5082C10.0894 11.5138 10.1101 11.5118 10.128 11.5026L11.274 10.9186C11.2838 10.9134 11.2924 10.9062 11.2993 10.8976C11.3063 10.889 11.3114 10.8791 11.3144 10.8684C11.3173 10.8578 11.3181 10.8466 11.3167 10.8356C11.3153 10.8247 11.3117 10.8141 11.306 10.8046C10.831 9.97357 9.95303 9.51857 8.79603 9.51857C7.27603 9.51857 6.33203 10.2736 6.33203 11.4746C6.33203 12.7496 7.48203 13.0716 8.50203 13.2946C9.52203 13.5166 9.97603 13.6046 9.97603 13.9996C9.97603 14.3956 9.64403 14.5816 8.98303 14.5816C8.37103 14.5816 7.91803 14.2996 7.64303 13.7516C7.63341 13.7328 7.61677 13.7186 7.59673 13.7121C7.57669 13.7055 7.55488 13.7071 7.53603 13.7166L6.39303 14.2866C6.37363 14.2966 6.35897 14.3139 6.35223 14.3347C6.34549 14.3555 6.34722 14.3781 6.35703 14.3976C6.81103 15.3176 7.74103 15.8346 8.98403 15.8346C10.567 15.8346 11.523 15.0926 11.523 13.8546C11.523 12.6166 10.368 12.2566 9.35003 12.0346L9.34903 12.0316ZM15.489 9.51857C14.839 9.51857 14.265 9.75057 13.853 10.1646C13.8474 10.1706 13.84 10.1746 13.832 10.1763C13.8239 10.1779 13.8155 10.1771 13.808 10.1738C13.8005 10.1705 13.7941 10.165 13.7898 10.158C13.7855 10.151 13.7835 10.1428 13.784 10.1346V7.49457C13.7842 7.48398 13.7822 7.47347 13.7782 7.46365C13.7743 7.45383 13.7684 7.44489 13.761 7.43736C13.7535 7.42982 13.7447 7.42384 13.7349 7.41976C13.7251 7.41568 13.7146 7.41357 13.704 7.41357H12.269C12.2584 7.41357 12.2478 7.4157 12.2379 7.41985C12.2281 7.42399 12.2192 7.43007 12.2117 7.43771C12.2043 7.44535 12.1984 7.45441 12.1945 7.46434C12.1906 7.47428 12.1888 7.4849 12.189 7.49557V15.6896C12.1888 15.7002 12.1906 15.7109 12.1945 15.7208C12.1984 15.7307 12.2043 15.7398 12.2117 15.7474C12.2192 15.7551 12.2281 15.7612 12.2379 15.7653C12.2478 15.7694 12.2584 15.7716 12.269 15.7716H13.702C13.7128 15.7717 13.7235 15.7697 13.7334 15.7656C13.7434 15.7615 13.7524 15.7555 13.76 15.7478C13.7675 15.7401 13.7735 15.731 13.7774 15.721C13.7814 15.711 13.7833 15.7003 13.783 15.6896V12.0956C13.783 11.4006 14.311 10.8686 15.022 10.8686C15.732 10.8686 16.248 11.3896 16.248 12.0956V15.6896C16.2478 15.7003 16.2497 15.711 16.2536 15.721C16.2576 15.731 16.2635 15.7401 16.2711 15.7478C16.2787 15.7555 16.2877 15.7615 16.2976 15.7656C16.3076 15.7697 16.3183 15.7717 16.329 15.7716H17.762C17.7728 15.7717 17.7835 15.7697 17.7934 15.7656C17.8034 15.7615 17.8124 15.7555 17.82 15.7478C17.8275 15.7401 17.8335 15.731 17.8374 15.721C17.8414 15.711 17.8433 15.7003 17.843 15.6896V12.0956C17.843 10.5856 16.863 9.51857 15.489 9.51857ZM20.752 9.28357C19.974 9.28357 19.245 9.52357 18.722 9.87157C18.7045 9.8829 18.692 9.90048 18.6869 9.92073C18.6819 9.94098 18.6848 9.96238 18.695 9.98057L19.327 11.0686C19.3322 11.0778 19.3392 11.086 19.3476 11.0925C19.3559 11.099 19.3655 11.1038 19.3757 11.1066C19.386 11.1094 19.3967 11.1101 19.4072 11.1087C19.4177 11.1074 19.4279 11.1039 19.437 11.0986C19.8338 10.8564 20.2902 10.7297 20.755 10.7326C22.005 10.7326 22.925 11.6236 22.925 12.8006C22.925 13.8036 22.189 14.5456 21.256 14.5456C20.496 14.5456 19.968 14.0996 19.968 13.4686C19.968 13.1076 20.12 12.8116 20.516 12.6026C20.5259 12.5976 20.5345 12.5906 20.5416 12.5821C20.5486 12.5736 20.5537 12.5637 20.5567 12.5531C20.5597 12.5425 20.5605 12.5313 20.559 12.5204C20.5575 12.5095 20.5538 12.499 20.548 12.4896L19.952 11.4716C19.9426 11.455 19.9275 11.4424 19.9095 11.436C19.8915 11.4295 19.8719 11.4298 19.854 11.4366C19.055 11.7356 18.495 12.4546 18.495 13.4206C18.495 14.8806 19.647 15.9706 21.255 15.9706C23.132 15.9706 24.482 14.6576 24.482 12.7756C24.482 10.7576 22.912 9.28357 20.752 9.28357ZM28.674 9.50657C27.95 9.50657 27.301 9.77657 26.829 10.2526C26.803 10.2796 26.76 10.2596 26.76 10.2236V9.65157C26.7603 9.6409 26.7584 9.63028 26.7545 9.62035C26.7506 9.61041 26.7448 9.60135 26.7373 9.59371C26.7299 9.58607 26.721 9.57999 26.7111 9.57585C26.7013 9.5717 26.6907 9.56957 26.68 9.56957H25.283C25.2724 9.56957 25.2618 9.5717 25.2519 9.57585C25.2421 9.57999 25.2332 9.58607 25.2257 9.59371C25.2183 9.60135 25.2124 9.61041 25.2085 9.62035C25.2046 9.63028 25.2028 9.6409 25.203 9.65157V17.8336C25.2029 17.8442 25.2049 17.8547 25.2088 17.8645C25.2128 17.8743 25.2187 17.8833 25.2261 17.8908C25.2335 17.8983 25.2424 17.9043 25.2522 17.9084C25.262 17.9125 25.2724 17.9146 25.283 17.9146H26.716C26.7267 17.9147 26.7373 17.9127 26.7472 17.9087C26.7571 17.9047 26.7661 17.8987 26.7736 17.8911C26.7812 17.8836 26.7871 17.8746 26.7911 17.8647C26.7952 17.8548 26.7972 17.8442 26.797 17.8336V15.1506C26.797 15.1146 26.84 15.0966 26.866 15.1206C27.3559 15.5783 28.0037 15.8291 28.674 15.8206C30.356 15.8206 31.667 14.4476 31.667 12.6636C31.667 10.8796 30.354 9.50657 28.674 9.50657ZM28.403 14.4356C27.447 14.4356 26.722 13.6676 26.722 12.6526C26.722 11.6376 27.445 10.8696 28.403 10.8696C29.361 10.8696 30.083 11.6246 30.083 12.6526C30.083 13.6796 29.371 14.4356 28.403 14.4356Z" fill="white"/>
</g>
<defs>
<clipPath id="clip0_1816_19415">
<rect width="38" height="24" fill="white" transform="translate(0 0.663574)"/>
</clipPath>
</defs>
</svg>
