<svg width="23" height="22" viewBox="0 0 23 22" fill="none" xmlns="http://www.w3.org/2000/svg">
<path d="M13.3511 9.08079L13.9818 9.48663L13.3511 9.08079ZM8.91797 8C8.91797 8.41421 9.25376 8.75 9.66797 8.75C10.0822 8.75 10.418 8.41421 10.418 8H8.91797ZM10.918 12.5C10.918 12.9142 11.2538 13.25 11.668 13.25C12.0822 13.25 12.418 12.9142 12.418 12.5H10.918ZM12.418 15C12.418 14.5858 12.0822 14.25 11.668 14.25C11.2538 14.25 10.918 14.5858 10.918 15H12.418ZM10.918 16C10.918 16.4142 11.2538 16.75 11.668 16.75C12.0822 16.75 12.418 16.4142 12.418 16H10.918ZM21.668 11H20.918C20.918 16.1086 16.7766 20.25 11.668 20.25V21V21.75C17.605 21.75 22.418 16.9371 22.418 11H21.668ZM11.668 21V20.25C6.55933 20.25 2.41797 16.1086 2.41797 11H1.66797H0.917969C0.917969 16.9371 5.73091 21.75 11.668 21.75V21ZM1.66797 11H2.41797C2.41797 5.89137 6.55933 1.75 11.668 1.75V1V0.25C5.73091 0.25 0.917969 5.06294 0.917969 11H1.66797ZM11.668 1V1.75C16.7766 1.75 20.918 5.89137 20.918 11H21.668H22.418C22.418 5.06294 17.605 0.25 11.668 0.25V1ZM13.668 8H12.918C12.918 8.24996 12.8454 8.48068 12.7204 8.67495L13.3511 9.08079L13.9818 9.48663C14.2579 9.05757 14.418 8.54634 14.418 8H13.668ZM9.66797 8H10.418C10.418 7.30964 10.9776 6.75 11.668 6.75V6V5.25C10.1492 5.25 8.91797 6.48122 8.91797 8H9.66797ZM11.668 6V6.75C12.3583 6.75 12.918 7.30964 12.918 8H13.668H14.418C14.418 6.48122 13.1868 5.25 11.668 5.25V6ZM11.668 12H10.918V12.5H11.668H12.418V12H11.668ZM13.3511 9.08079L12.7204 8.67495C12.5944 8.87065 12.4368 9.07313 12.2516 9.30329C12.0743 9.52369 11.8658 9.77635 11.6789 10.0333C11.3104 10.5398 10.918 11.2007 10.918 12H11.668H12.418C12.418 11.6947 12.5683 11.3605 12.8918 10.9158C13.051 10.697 13.226 10.4851 13.4203 10.2436C13.6067 10.0119 13.8089 9.75537 13.9818 9.48663L13.3511 9.08079ZM11.668 15H10.918V16H11.668H12.418V15H11.668Z" fill="#6D6D6D"/>
</svg>
