<svg width="14" height="15" viewBox="0 0 14 15" fill="none" xmlns="http://www.w3.org/2000/svg">
<path d="M7.44254 6.93246L13.6925 13.1825C13.8098 13.2997 13.8757 13.4588 13.8757 13.6247C13.8757 13.7905 13.8098 13.9496 13.6925 14.0668C13.5753 14.1841 13.4162 14.25 13.2503 14.25C13.0845 14.25 12.9254 14.1841 12.8082 14.0668L7.00035 8.25825L1.19253 14.0668C1.07526 14.1841 0.9162 14.25 0.750347 14.25C0.584495 14.25 0.425435 14.1841 0.30816 14.0668C0.190885 13.9496 0.125 13.7905 0.125 13.6247C0.125 13.4588 0.190885 13.2997 0.30816 13.1825L6.55816 6.93246C6.6162 6.87435 6.68514 6.82825 6.76101 6.7968C6.83688 6.76535 6.91821 6.74916 7.00035 6.74916C7.08248 6.74916 7.16381 6.76535 7.23968 6.7968C7.31556 6.82825 7.38449 6.87435 7.44254 6.93246ZM6.55816 0.682464L0.30816 6.93246C0.190884 7.04974 0.125 7.2088 0.125 7.37465C0.125 7.5405 0.190884 7.69956 0.30816 7.81684C0.425435 7.93412 0.584495 8 0.750347 8C0.9162 8 1.07526 7.93412 1.19253 7.81684L7.00035 2.00825L12.8082 7.81684C12.9254 7.93412 13.0845 8 13.2503 8C13.4162 8 13.5753 7.93412 13.6925 7.81684C13.8098 7.69956 13.8757 7.5405 13.8757 7.37465C13.8757 7.2088 13.8098 7.04974 13.6925 6.93246L7.44253 0.682464C7.38449 0.624353 7.31556 0.578254 7.23968 0.546801C7.16381 0.515348 7.08248 0.49916 7.00035 0.49916C6.91821 0.49916 6.83688 0.515348 6.76101 0.546801C6.68514 0.578254 6.6162 0.624353 6.55816 0.682464Z" fill="white"/>
</svg>
