<svg width="38" height="25" viewBox="0 0 38 25" fill="none" xmlns="http://www.w3.org/2000/svg">
<g clip-path="url(#clip0_1816_19431)">
<path opacity="0.07" d="M35 0.663574H3C1.3 0.663574 0 1.96357 0 3.66357V21.6636C0 23.3636 1.4 24.6636 3 24.6636H35C36.7 24.6636 38 23.3636 38 21.6636V3.66357C38 1.96357 36.6 0.663574 35 0.663574Z" fill="black"/>
<path d="M35 1.66357C36.1 1.66357 37 2.56357 37 3.66357V21.6636C37 22.7636 36.1 23.6636 35 23.6636H3C1.9 23.6636 1 22.7636 1 21.6636V3.66357C1 2.56357 1.9 1.66357 3 1.66357H35Z" fill="#151515"/>
<path d="M28.3 10.7636H28C27.6 11.7636 27.3 12.2636 27 13.7636H28.9C28.6 12.2636 28.6 11.5636 28.3 10.7636ZM31.2 16.6636H29.5C29.4 16.6636 29.4 16.6636 29.3 16.5636L29.1 15.6636L29 15.4636H26.6C26.5 15.4636 26.4 15.4636 26.4 15.6636L26.1 16.5636C26.1 16.6636 26 16.6636 26 16.6636H23.9L24.1 16.1636L27 9.36357C27 8.86357 27.3 8.66357 27.8 8.66357H29.3C29.4 8.66357 29.5 8.66357 29.5 8.86357L30.9 15.3636C31 15.7636 31.1 16.0636 31.1 16.4636C31.2 16.5636 31.2 16.5636 31.2 16.6636ZM17.8 16.3636L18.2 14.5636C18.3 14.5636 18.4 14.6636 18.4 14.6636C19.1 14.9636 19.8 15.1636 20.5 15.0636C20.7 15.0636 21 14.9636 21.2 14.8636C21.7 14.6636 21.7 14.1636 21.3 13.7636C21.1 13.5636 20.8 13.4636 20.5 13.2636C20.1 13.0636 19.7 12.8636 19.4 12.5636C18.2 11.5636 18.6 10.1636 19.3 9.46357C19.9 9.06357 20.2 8.66357 21 8.66357C22.2 8.66357 23.5 8.66357 24.1 8.86357H24.2C24.1 9.46357 24 9.96357 23.8 10.5636C23.3 10.3636 22.8 10.1636 22.3 10.1636C22 10.1636 21.7 10.1636 21.4 10.2636C21.2 10.2636 21.1 10.3636 21 10.4636C20.8 10.6636 20.8 10.9636 21 11.1636L21.5 11.5636C21.9 11.7636 22.3 11.9636 22.6 12.1636C23.1 12.4636 23.6 12.9636 23.7 13.5636C23.9 14.4636 23.6 15.2636 22.8 15.8636C22.3 16.2636 22.1 16.4636 21.4 16.4636C20 16.4636 18.9 16.5636 18 16.2636C17.9 16.4636 17.9 16.4636 17.8 16.3636ZM14.3 16.6636C14.4 15.9636 14.4 15.9636 14.5 15.6636C15 13.4636 15.5 11.1636 15.9 8.96357C16 8.76357 16 8.66357 16.2 8.66357H18C17.8 9.86357 17.6 10.7636 17.3 11.8636C17 13.3636 16.7 14.8636 16.3 16.3636C16.3 16.5636 16.2 16.5636 16 16.5636M5 8.86357C5 8.76357 5.2 8.66357 5.3 8.66357H8.7C9.2 8.66357 9.6 8.96357 9.7 9.46357L10.6 13.8636C10.6 13.9636 10.6 13.9636 10.7 14.0636C10.7 13.9636 10.8 13.9636 10.8 13.9636L12.9 8.86357C12.8 8.76357 12.9 8.66357 13 8.66357H15.1C15.1 8.76357 15.1 8.76357 15 8.86357L11.9 16.1636C11.8 16.3636 11.8 16.4636 11.7 16.5636C11.6 16.6636 11.4 16.5636 11.2 16.5636H9.7C9.6 16.5636 9.5 16.5636 9.5 16.3636L7.9 10.1636C7.7 9.96357 7.4 9.66357 7 9.56357C6.4 9.26357 5.3 9.06357 5.1 9.06357L5 8.86357Z" fill="white"/>
</g>
<defs>
<clipPath id="clip0_1816_19431">
<rect width="38" height="24" fill="white" transform="translate(0 0.663574)"/>
</clipPath>
</defs>
</svg>
