<svg width="184" height="77" viewBox="0 0 184 77" fill="none" xmlns="http://www.w3.org/2000/svg">
<path fill-rule="evenodd" clip-rule="evenodd" d="M74.0684 45.8156V47.0958H85.5311C99.9244 47.0958 105.932 41.3005 105.932 32.1622C105.932 25.8238 101.454 18.728 88.5519 18.2227C92.5893 17.0086 94.9933 14.1611 95.475 11.0782C107.083 12.6849 114.722 22.1491 114.803 31.7935C114.892 42.5216 105.692 53.4718 91.6905 54.0745H70.406C70.408 38.0557 70.4453 16.9165 70.5167 1.23712L78.0098 1.22347C85.7729 1.22347 89.3402 5.36644 89.942 9.53828H73.9442L74.0681 45.8156H74.0684ZM85.3458 55.5978H97.8008C112.98 54.5484 122.941 43.0459 122.723 31.7997C122.505 20.5416 112.088 9.53828 95.745 9.53828H95.5553C95.3131 4.86108 90.6502 0.175907 80.5917 0.175907H61.4639L61.2733 55.5978H85.3458ZM90.0339 10.8385C90.0316 14.2683 88.0779 17.4232 84.8711 17.9527L84.9273 19.4083C94.6056 19.5902 97.8247 25.7904 97.8249 32.2357C97.8249 39.6273 92.6009 45.6589 83.2129 45.8135V38.8868L83.0992 10.8392L90.0339 10.8385Z" fill="white"/>
<g clip-path="url(#clip0_6_53)">
<path d="M11.6824 73.1319C11.6853 73.578 11.6004 74.0202 11.4324 74.4334C11.2703 74.832 11.0346 75.1966 10.7377 75.5081C10.4422 75.8185 10.0926 76.0724 9.70602 76.2573C9.30467 76.4496 8.86954 76.5614 8.42521 76.5864V76.6079H0V63.0564H7.40452C7.87066 63.0541 8.33241 63.1465 8.76178 63.3279C9.17728 63.501 9.5538 63.7558 9.86903 64.0771C10.1816 64.3973 10.432 64.7727 10.6076 65.1843C10.7898 65.6096 10.8822 66.0679 10.8792 66.5306C10.8792 67.2544 10.6873 67.8988 10.3036 68.4639C9.93894 69.0127 9.42181 69.4429 8.81582 69.7016C9.2152 69.7717 9.5981 69.9153 9.94504 70.1252C10.2884 70.3316 10.5964 70.5918 10.8572 70.8959C11.117 71.1986 11.3226 71.5439 11.4649 71.9166C11.6121 72.3049 11.6858 72.7171 11.6824 73.1324V73.1319ZM175.336 65.7942C175.336 66.2863 175.55 66.7061 175.977 67.0535C176.404 67.4009 176.94 67.7194 177.584 68.0091C178.228 68.2988 178.923 68.5884 179.668 68.8778C180.388 69.155 181.086 69.489 181.753 69.8765C182.365 70.2255 182.909 70.6815 183.36 71.2228C183.787 71.7439 184 72.3883 184 73.1561C184 74.3143 183.544 75.2155 182.632 75.8596C181.72 76.5038 180.295 76.826 178.355 76.8263C177.557 76.8308 176.765 76.7024 176.009 76.4462C175.333 76.2204 174.679 75.9333 174.055 75.5885C173.395 75.2449 172.769 74.8377 172.188 74.3727L173.121 73.3521C173.537 73.9267 174.018 74.4513 174.555 74.9154C175.065 75.3368 175.622 75.6974 176.216 75.9901C176.86 76.3161 177.58 76.479 178.376 76.4787C179.158 76.4787 179.798 76.41 180.298 76.2726C180.798 76.1353 181.189 75.9579 181.47 75.7406C181.753 75.5235 181.948 75.2745 182.057 74.9936C182.162 74.7277 182.217 74.4447 182.22 74.1588C182.22 73.7241 182.006 73.3296 181.579 72.9755C181.152 72.6214 180.616 72.2791 179.972 71.9487C179.328 71.6229 178.629 71.2861 177.877 70.9381C177.152 70.6056 176.451 70.221 175.782 69.7873C175.171 69.3973 174.628 68.9094 174.175 68.3431C173.748 67.8006 173.534 67.1673 173.534 66.4432C173.536 66.001 173.632 65.5642 173.817 65.1624C174.015 64.7297 174.308 64.3474 174.674 64.0441C175.058 63.7187 175.543 63.4581 176.129 63.2625C176.716 63.0668 177.414 62.9691 178.225 62.9694C179.354 62.9694 180.371 63.0417 181.275 63.1864C182.085 63.3103 182.887 63.4844 183.675 63.7076L183.197 64.9677C182.98 64.8233 182.734 64.6569 182.459 64.4686C182.16 64.2669 181.848 64.0855 181.525 63.9255C181.158 63.7445 180.776 63.5957 180.383 63.4808C179.95 63.355 179.501 63.2928 179.049 63.2963C178.441 63.2963 177.909 63.3615 177.453 63.4918C177.037 63.6032 176.644 63.7869 176.291 64.0345C175.996 64.2405 175.751 64.5109 175.575 64.8254C175.416 65.1225 175.334 65.4549 175.336 65.792V65.7942ZM164.359 63.0564C165.219 63.0577 166.07 63.239 166.856 63.5885C167.659 63.9374 168.394 64.4256 169.028 65.0305C169.67 65.6468 170.193 66.3768 170.569 67.1835C170.961 68.0116 171.161 68.9171 171.155 69.833C171.16 70.7549 170.94 71.6641 170.515 72.4821C170.102 73.2884 169.551 74.016 168.886 74.6315C168.241 75.2314 167.499 75.7195 166.693 76.0758C165.89 76.4305 165.112 76.6078 164.359 76.6075H158.887V63.0564H164.359ZM164.359 76.2586C165.242 76.2586 165.963 76.0885 166.52 75.7485C167.074 75.4113 167.528 74.9313 167.833 74.3587C168.152 73.7728 168.369 73.0889 168.485 72.3068C168.605 71.4799 168.663 70.6453 168.661 69.8097C168.664 68.9777 168.605 68.1466 168.485 67.3233C168.369 66.5491 168.152 65.8723 167.833 65.2929C167.527 64.7267 167.073 64.254 166.52 63.925C165.963 63.592 165.243 63.4256 164.359 63.4259H161.362V76.259H164.359V76.2586ZM155.835 63.0564V76.6061H153.359L145.455 63.6443V76.6061H145.108V63.0564H147.583L155.487 76.0182V63.0564H155.835ZM130.799 74.777C130.133 74.1201 129.607 73.3337 129.256 72.4663C128.57 70.7884 128.57 68.9084 129.256 67.2305C129.607 66.3631 130.133 65.5767 130.799 64.9198C131.452 64.2593 132.233 63.7393 133.095 63.3921C133.926 63.0536 134.815 62.8789 135.712 62.8776C136.612 62.8794 137.503 63.0513 138.338 63.3842C139.204 63.7327 139.99 64.2524 140.649 64.912C141.309 65.5717 141.828 66.3577 142.177 67.2231C142.853 68.9082 142.853 70.7891 142.177 72.4742C141.828 73.3394 141.309 74.1253 140.649 74.7849C139.989 75.4445 139.203 75.9641 138.338 76.3126C137.503 76.6455 136.612 76.8174 135.712 76.8192C134.815 76.8179 133.926 76.6432 133.095 76.3047C132.233 75.9575 131.452 75.4376 130.799 74.777ZM135.713 63.2291C134.792 63.2291 134.045 63.4031 133.472 63.7511C132.902 64.0963 132.433 64.5862 132.113 65.1711C131.781 65.7702 131.553 66.4688 131.43 67.267C131.303 68.121 131.242 68.9833 131.246 69.8466C131.246 71.0136 131.349 72.0828 131.554 73.0542C131.759 74.0255 132.158 74.8086 132.751 75.4035C133.103 75.7525 133.527 76.0212 133.993 76.1909C134.484 76.3755 135.058 76.4676 135.713 76.4673C136.634 76.4673 137.384 76.2857 137.962 75.9225C138.537 75.5631 139.008 75.0604 139.329 74.4637C139.662 73.8547 139.892 73.1433 140.02 72.3296C140.151 71.4684 140.215 70.5983 140.212 69.7271C140.212 68.5601 140.109 67.5109 139.904 66.5794C139.699 65.6479 139.305 64.8899 138.722 64.3056C138.366 63.956 137.939 63.6864 137.471 63.5147C136.973 63.3254 136.387 63.2308 135.713 63.2308L135.713 63.2291ZM126.347 63.0533V76.6061H123.85V63.8596L118.094 76.6061H115.618L109.846 63.8596V76.6061H109.499V63.0564H111.975L117.924 76.2155L123.85 63.0564L126.347 63.0533ZM102.646 71.2426H96.6744L94.5895 76.6061H94.2204L99.5405 63.0564H101.755L107.618 76.6061H104.861L102.646 71.2426ZM102.514 70.8735L99.5827 63.795L96.8045 70.8744L102.514 70.8735ZM89.8011 76.6061V63.0564H92.2766V76.6061H89.8011ZM80.6483 63.0564C81.5086 63.0578 82.3591 63.239 83.1453 63.5885C83.9484 63.9374 84.6836 64.4256 85.3167 65.0305C85.9593 65.6468 86.482 66.3768 86.8585 67.1835C87.2499 68.0116 87.4502 68.9171 87.4447 69.833C87.4492 70.7549 87.2294 71.6641 86.804 72.4821C86.3914 73.2885 85.84 74.0161 85.1752 74.6315C84.5295 75.2314 83.7884 75.7194 82.9823 76.0758C82.1788 76.4305 81.4008 76.6078 80.6483 76.6075H75.1762V63.0564H80.6483ZM80.6483 76.2586C81.5314 76.2586 82.2516 76.0885 82.8087 75.7485C83.3633 75.4113 83.817 74.9313 84.1225 74.3587C84.4412 73.7728 84.6584 73.0889 84.7741 72.3068C84.8929 71.4798 84.9509 70.6452 84.9476 69.8097C84.9512 68.9778 84.8932 68.1467 84.7741 67.3233C84.6569 66.5491 84.4397 65.8723 84.1225 65.2929C83.8161 64.7266 83.3621 64.254 82.8087 63.925C82.2522 63.592 81.532 63.4256 80.6483 63.4259H77.6517V76.259H80.6483V76.2586ZM51.3777 74.7818C50.7111 74.1249 50.186 73.3385 49.8346 72.4711C49.1486 70.7931 49.1486 68.9129 49.8346 67.2349C50.186 66.3675 50.7111 65.5811 51.3777 64.9242C52.0308 64.2639 52.8119 63.744 53.6731 63.3965C54.5047 63.0582 55.3937 62.8835 56.2914 62.8819C57.1907 62.8837 58.0815 63.0558 58.9167 63.389C59.782 63.7374 60.5681 64.2569 61.2277 64.9165C61.8873 65.5761 62.4068 66.3621 62.7552 67.2275C63.4312 68.9126 63.4312 70.7935 62.7552 72.4786C62.4068 73.3439 61.8873 74.1299 61.2277 74.7895C60.5681 75.4491 59.782 75.9687 58.9167 76.317C58.0815 76.6502 57.1907 76.8223 56.2914 76.8241C55.3937 76.8225 54.5047 76.6478 53.6731 76.3096C52.8119 75.962 52.0308 75.4421 51.3777 74.7818ZM56.2914 63.2352C55.3699 63.2352 54.6229 63.4092 54.0505 63.7572C53.4802 64.1024 53.0114 64.5926 52.6919 65.1777C52.3592 65.7762 52.1314 66.4748 52.0087 67.2736C51.882 68.1276 51.8205 68.9899 51.8246 69.8532C51.8246 71.0199 51.9271 72.0891 52.1322 73.0607C52.3372 74.0324 52.7363 74.8155 53.3295 75.4101C53.6823 75.7579 54.106 76.0254 54.5716 76.1944C55.0629 76.3787 55.6361 76.4708 56.2914 76.4708C57.2126 76.4708 57.9624 76.2891 58.5406 75.9255C59.115 75.5664 59.586 75.0638 59.9071 74.4672C60.2401 73.8582 60.4705 73.1467 60.5982 72.3327C60.7297 71.4715 60.7939 70.6014 60.7903 69.7302C60.7903 68.5632 60.6877 67.5139 60.4827 66.5825C60.2776 65.651 59.8837 64.8935 59.3007 64.31C58.9445 63.9605 58.5179 63.6909 58.0494 63.5191C57.5514 63.3298 56.9656 63.2351 56.2918 63.2348L56.2914 63.2352ZM49.6945 76.2586V76.6061H39.1193V63.0564H41.5948V76.2586H49.6945ZM37.3917 76.2586V76.6061H26.8179V63.0564H29.2934V76.2586H37.3917ZM16.5793 63.4255V69.7878H23.1152V70.1353H16.5793V76.2586H24.874V76.6061H14.1043V63.0564H24.874V63.4255H16.5793ZM2.47506 69.6577H5.94927C6.38368 69.6577 6.75643 69.5744 7.06751 69.4077C7.37137 69.2478 7.63214 69.0168 7.82765 68.7346C8.03033 68.4341 8.17696 68.0995 8.26044 67.7468C8.35701 67.3487 8.40438 66.9403 8.40148 66.5306C8.4044 66.1211 8.35703 65.7128 8.26044 65.3148C8.17703 64.9623 8.0304 64.6278 7.82765 64.3275C7.63389 64.0465 7.37247 63.8188 7.06751 63.6654C6.75643 63.5063 6.38368 63.4268 5.94927 63.4268H2.47506V69.6577ZM6.75291 76.2586C7.18702 76.2586 7.55611 76.1754 7.86016 76.009C8.15936 75.8467 8.41604 75.6161 8.60931 75.3359C8.81269 75.0355 8.95993 74.7007 9.04386 74.3477C9.23193 73.5479 9.23193 72.7155 9.04386 71.9157C8.95993 71.5629 8.8127 71.2282 8.60931 70.928C8.41633 70.6475 8.15958 70.4168 7.86016 70.2548C7.55611 70.0885 7.18702 70.0051 6.75291 70.0048H2.47506V76.2586H6.75291Z" fill="white"/>
</g>
<defs>
<clipPath id="clip0_6_53">
<rect width="184" height="13.9465" fill="white" transform="translate(0 62.8776)"/>
</clipPath>
</defs>
</svg>
