<svg width="153" height="41" viewBox="0 0 153 41" fill="none" xmlns="http://www.w3.org/2000/svg">
<path fill-rule="evenodd" clip-rule="evenodd" d="M26.484 40.8468H0L0.138186 0.663574H14.0066C21.2995 0.663574 24.6803 4.06052 24.8559 7.4517H24.9935C36.843 7.4517 44.3955 15.4296 44.5538 23.5921C44.7119 31.7461 37.4893 40.086 26.484 40.8468ZM9.27696 34.6825V33.7543H9.2768L9.18693 7.4517H20.786C20.3497 4.42693 17.7632 1.42311 12.1347 1.42311L6.70188 1.433C6.6501 12.8012 6.62306 28.1281 6.62157 39.7423H22.0538C32.2057 39.3053 38.8758 31.366 38.8109 23.5877C38.7527 16.5951 33.2142 9.73309 24.7977 8.56824C24.4485 10.8035 22.7055 12.868 19.7781 13.7483C29.1326 14.1147 32.3795 19.2594 32.3795 23.855C32.3795 30.4807 28.0237 34.6825 17.5879 34.6825H9.27696ZM17.1094 13.5525C19.4345 13.1686 20.851 10.8811 20.8526 8.39443L15.8247 8.39493L15.9071 28.7306V33.7528C22.7139 33.6407 26.5015 29.2675 26.5015 23.9083C26.5013 19.2351 24.1673 14.7398 17.1501 14.6079L17.1094 13.5525Z" fill="white"/>
<path fill-rule="evenodd" clip-rule="evenodd" d="M92.1692 13.4071C91.9089 14.0432 91.7788 14.7323 91.7788 15.4744C91.7788 16.2166 91.9089 16.9105 92.1692 17.5563C92.439 18.1924 92.8101 18.7514 93.2824 19.2333C93.7643 19.7056 94.3233 20.0766 94.9594 20.3465C95.6052 20.6067 96.2991 20.7369 97.0412 20.7369C97.7834 20.7369 98.4725 20.6067 99.1086 20.3465C99.7544 20.0766 100.313 19.7056 100.786 19.2333C101.268 18.7514 101.639 18.1924 101.899 17.5563C102.169 16.9105 102.304 16.2166 102.304 15.4744C102.304 14.7323 102.169 14.0432 101.899 13.4071C101.639 12.7613 101.268 12.2023 100.786 11.73C100.313 11.2481 99.7544 10.877 99.1086 10.6168C98.4725 10.347 97.7834 10.212 97.0412 10.212C96.2991 10.212 95.6052 10.347 94.9594 10.6168C94.3233 10.877 93.7643 11.2481 93.2824 11.73C92.8101 12.2023 92.439 12.7613 92.1692 13.4071ZM93.398 18.0623C93.0511 17.3201 92.8776 16.4575 92.8776 15.4744C92.8776 14.4913 93.0511 13.6336 93.398 12.9011C93.7546 12.1589 94.2414 11.5855 94.8582 11.1807C95.4847 10.7662 96.2124 10.559 97.0412 10.559C97.8701 10.559 98.5978 10.7662 99.2243 11.1807C99.8508 11.5951 100.337 12.1734 100.684 12.9155C101.031 13.648 101.205 14.501 101.205 15.4744C101.205 16.4479 101.031 17.3057 100.684 18.0478C100.337 18.79 99.8508 19.3682 99.2243 19.7827C98.5978 20.1875 97.8701 20.3899 97.0412 20.3899C96.2124 20.3899 95.4847 20.1875 94.8582 19.7827C94.2317 19.3682 93.745 18.7948 93.398 18.0623Z" fill="white"/>
<path fill-rule="evenodd" clip-rule="evenodd" d="M52.2186 20.5345V10.4144H54.2282C55.2691 10.4144 56.0787 10.6313 56.657 11.065C57.2353 11.4987 57.5244 12.1011 57.5244 12.8721C57.5244 13.4408 57.3557 13.9275 57.0184 14.3323C56.6811 14.7275 56.2088 14.9974 55.6016 15.1419V15.2287C56.4305 15.3347 57.0762 15.6238 57.5389 16.0961C58.0111 16.5587 58.2473 17.1467 58.2473 17.8599C58.2473 18.6984 57.9244 19.3538 57.2786 19.8261C56.6329 20.2983 55.7269 20.5345 54.5607 20.5345H52.2186ZM54.2426 10.7614H53.2017V15.0986H54.2282C55.751 15.0986 56.5124 14.3757 56.5124 12.93C56.5124 11.4843 55.7558 10.7614 54.2426 10.7614ZM54.5607 15.4455H53.2017V20.1875H54.5607C56.3245 20.1875 57.2064 19.3972 57.2064 17.8165C57.2064 16.2359 56.3245 15.4455 54.5607 15.4455Z" fill="white"/>
<path d="M63.8883 20.5345V10.4144H68.2977V11.1228L65.7677 10.7903C65.3244 10.7325 65.0256 10.7036 64.8714 10.7036V15.113C64.9967 15.113 65.2955 15.0986 65.7677 15.0696L68.1387 14.9251V15.5901L65.7677 15.4455C65.2955 15.4166 64.9967 15.4022 64.8714 15.4022V20.2453C65.0449 20.2453 65.3485 20.2164 65.7822 20.1586L68.3411 19.8261V20.5345H63.8883Z" fill="white"/>
<path d="M75.101 10.4144H74.1179V20.5345H78.3683V19.7971L75.9684 20.1586C75.5732 20.2164 75.2841 20.2453 75.101 20.2453V10.4144Z" fill="white"/>
<path d="M83.5286 10.4144H84.5117V20.2453C84.6948 20.2453 84.984 20.2164 85.3792 20.1586L87.779 19.7971V20.5345H83.5286V10.4144Z" fill="white"/>
<path fill-rule="evenodd" clip-rule="evenodd" d="M52.2186 37.4494V27.3293H55.3992C56.5172 27.3293 57.4907 27.5414 58.3196 27.9655C59.1484 28.3895 59.7942 28.9823 60.2568 29.7437C60.7195 30.4955 60.9508 31.3774 60.9508 32.3894C60.9508 33.4014 60.7195 34.2881 60.2568 35.0495C59.7942 35.8013 59.1484 36.3892 58.3196 36.8133C57.4907 37.2373 56.5172 37.4494 55.3992 37.4494H52.2186ZM55.3992 27.6763H53.2017V37.1024H55.3992C56.7967 37.1024 57.8858 36.688 58.6665 35.8591C59.4569 35.0302 59.852 33.8736 59.852 32.3894C59.852 30.9051 59.4569 29.7485 58.6665 28.9196C57.8858 28.0908 56.7967 27.6763 55.3992 27.6763Z" fill="white"/>
<path d="M67.7233 27.3293H66.7402V37.4494H67.7233V27.3293Z" fill="white"/>
<path fill-rule="evenodd" clip-rule="evenodd" d="M76.6163 27.3293H77.5126L81.4016 37.4494H80.3462L78.5535 32.7074H75.2718L73.7827 37.4494H72.7273L76.6163 27.3293ZM76.7175 28.0811L75.373 32.3604H78.4234L76.8042 28.0811H76.7175Z" fill="white"/>
<path d="M95.0377 37.4494H96.0208V27.3293H94.9799L91.568 33.8929H91.4812L86.9272 27.1269H86.6381L86.2766 37.4494H87.2597L86.9417 28.963H87.0284L91.0041 34.876H91.4523L94.9509 28.1679H95.0377V37.4494Z" fill="white"/>
<path fill-rule="evenodd" clip-rule="evenodd" d="M101.803 32.3894C101.803 31.6472 101.933 30.9581 102.193 30.322C102.463 29.6762 102.834 29.1172 103.306 28.6449C103.788 28.163 104.347 27.792 104.983 27.5317C105.629 27.2619 106.323 27.1269 107.065 27.1269C107.807 27.1269 108.497 27.2619 109.133 27.5317C109.778 27.792 110.337 28.163 110.81 28.6449C111.292 29.1172 111.663 29.6762 111.923 30.322C112.193 30.9581 112.328 31.6472 112.328 32.3894C112.328 33.1315 112.193 33.8254 111.923 34.4712C111.663 35.1073 111.292 35.6663 110.81 36.1482C110.337 36.6205 109.778 36.9916 109.133 37.2614C108.497 37.5217 107.807 37.6518 107.065 37.6518C106.323 37.6518 105.629 37.5217 104.983 37.2614C104.347 36.9916 103.788 36.6205 103.306 36.1482C102.834 35.6663 102.463 35.1073 102.193 34.4712C101.933 33.8254 101.803 33.1315 101.803 32.3894ZM102.902 32.3894C102.902 33.3725 103.075 34.2351 103.422 34.9772C103.769 35.7097 104.256 36.2832 104.882 36.6976C105.509 37.1024 106.236 37.3048 107.065 37.3048C107.894 37.3048 108.622 37.1024 109.248 36.6976C109.875 36.2832 110.362 35.7049 110.708 34.9627C111.055 34.2206 111.229 33.3628 111.229 32.3894C111.229 31.4159 111.055 30.5629 110.708 29.8304C110.362 29.0883 109.875 28.51 109.248 28.0956C108.622 27.6811 107.894 27.4739 107.065 27.4739C106.236 27.4739 105.509 27.6811 104.882 28.0956C104.265 28.5004 103.779 29.0738 103.422 29.816C103.075 30.5485 102.902 31.4063 102.902 32.3894Z" fill="white"/>
<path d="M118.251 27.1269L117.889 37.4494H118.872L118.554 28.8618H118.641L125.913 37.6518H126.087L126.448 27.3293H125.465L125.783 35.9169H125.696L118.424 27.1269H118.251Z" fill="white"/>
<path fill-rule="evenodd" clip-rule="evenodd" d="M132.741 27.3293H135.921C137.039 27.3293 138.013 27.5414 138.842 27.9655C139.671 28.3895 140.316 28.9823 140.779 29.7437C141.242 30.4955 141.473 31.3774 141.473 32.3894C141.473 33.4014 141.242 34.2881 140.779 35.0495C140.316 35.8013 139.671 36.3892 138.842 36.8133C138.013 37.2373 137.039 37.4494 135.921 37.4494H132.741V27.3293ZM135.921 27.6763H133.724V37.1024H135.921C137.319 37.1024 138.408 36.688 139.189 35.8591C139.979 35.0302 140.374 33.8736 140.374 32.3894C140.374 30.9051 139.979 29.7485 139.189 28.9196C138.408 28.0908 137.319 27.6763 135.921 27.6763Z" fill="white"/>
<path d="M146.554 36.2639H146.467L146.38 37.1313C146.853 37.2855 147.349 37.4108 147.869 37.5072C148.39 37.6036 148.843 37.6518 149.228 37.6518C149.836 37.6518 150.366 37.5361 150.819 37.3048C151.281 37.0735 151.638 36.7554 151.889 36.3506C152.139 35.9362 152.264 35.4591 152.264 34.9194C152.264 34.3314 152.13 33.8447 151.86 33.4592C151.599 33.064 151.262 32.7267 150.848 32.4472C150.443 32.1677 150.024 31.9026 149.59 31.652C149.214 31.44 148.862 31.2232 148.535 31.0015C148.207 30.7702 147.937 30.5147 147.725 30.2352C147.523 29.9461 147.421 29.6039 147.421 29.2088C147.421 28.6787 147.609 28.2594 147.985 27.951C148.361 27.6329 148.857 27.4739 149.474 27.4739C150.332 27.4739 151.036 27.7727 151.585 28.3703H151.672L151.744 27.5607C151.503 27.4354 151.161 27.3342 150.718 27.2571C150.274 27.1703 149.86 27.1269 149.474 27.1269C148.607 27.1269 147.908 27.3534 147.378 27.8064C146.848 28.2498 146.583 28.8377 146.583 29.5702C146.583 30.0618 146.703 30.4858 146.944 30.8424C147.185 31.1894 147.494 31.4978 147.869 31.7677C148.245 32.0279 148.641 32.2785 149.055 32.5195C149.653 32.8665 150.12 33.1893 150.457 33.4881C150.804 33.7869 151.05 34.0809 151.195 34.37C151.349 34.6591 151.426 34.9724 151.426 35.3097C151.426 35.9169 151.224 36.4036 150.819 36.7699C150.414 37.1265 149.884 37.3048 149.228 37.3048C148.766 37.3048 148.298 37.2132 147.826 37.0301C147.354 36.847 146.93 36.5916 146.554 36.2639Z" fill="white"/>
</svg>
