<svg width="220" height="59" viewBox="0 0 1579 417" fill="none" xmlns="http://www.w3.org/2000/svg">
<path fill-rule="evenodd" clip-rule="evenodd" d="M275.425 416.766H0.984375L2.41633 0.367188H146.128C221.701 0.367188 256.734 35.5681 258.554 70.7091H259.979C382.77 70.7091 461.032 153.38 462.673 237.964C464.312 322.46 389.467 408.882 275.425 416.766ZM97.1169 352.888V343.27H97.1152L96.1839 70.7091H216.38C211.858 39.365 185.056 8.23783 126.73 8.23783L70.4326 8.34035C69.8961 126.144 69.6158 284.968 69.6004 405.321H229.517C334.716 400.792 403.834 318.522 403.163 237.918C402.56 165.458 345.167 94.3501 257.951 82.2793C254.332 105.442 236.27 126.836 205.935 135.957C302.871 139.754 336.517 193.066 336.517 240.688C336.517 309.347 291.38 352.888 183.239 352.888H97.1169ZM178.281 133.929C202.374 129.951 217.053 106.247 217.07 80.4782L164.967 80.4833L165.822 291.212V343.254C236.357 342.092 275.606 296.776 275.606 241.24C275.604 192.815 251.418 146.232 178.703 144.865L178.281 133.929Z" fill="black"/>
<path fill-rule="evenodd" clip-rule="evenodd" d="M956.088 132.422C953.391 139.013 952.043 146.154 952.043 153.845C952.043 161.535 953.391 168.726 956.088 175.418C958.884 182.01 962.729 187.802 967.623 192.796C972.617 197.69 978.41 201.535 985.001 204.332C991.693 207.028 998.884 208.377 1006.57 208.377C1014.26 208.377 1021.41 207.028 1028 204.332C1034.69 201.535 1040.48 197.69 1045.38 192.796C1050.37 187.802 1054.21 182.01 1056.91 175.418C1059.71 168.726 1061.11 161.535 1061.11 153.845C1061.11 146.154 1059.71 139.013 1056.91 132.422C1054.21 125.73 1050.37 119.937 1045.38 115.043C1040.48 110.05 1034.69 106.204 1028 103.508C1021.41 100.711 1014.26 99.3129 1006.57 99.3129C998.884 99.3129 991.693 100.711 985.001 103.508C978.41 106.204 972.617 110.05 967.623 115.043C962.729 119.937 958.884 125.73 956.088 132.422ZM968.822 180.661C965.226 172.971 963.428 164.032 963.428 153.845C963.428 143.658 965.226 134.769 968.822 127.178C972.517 119.488 977.561 113.545 983.953 109.35C990.445 105.056 997.985 102.908 1006.57 102.908C1015.16 102.908 1022.7 105.056 1029.2 109.35C1035.69 113.645 1040.73 119.638 1044.33 127.328C1047.92 134.918 1049.72 143.757 1049.72 153.845C1049.72 163.932 1047.92 172.821 1044.33 180.511C1040.73 188.202 1035.69 194.194 1029.2 198.489C1022.7 202.684 1015.16 204.781 1006.57 204.781C997.985 204.781 990.445 202.684 983.953 198.489C977.461 194.194 972.417 188.252 968.822 180.661Z" fill="black"/>
<path fill-rule="evenodd" clip-rule="evenodd" d="M542.1 206.279V101.41H562.924C573.71 101.41 582.1 103.658 588.092 108.152C594.085 112.646 597.081 118.888 597.081 126.878C597.081 132.771 595.333 137.815 591.838 142.01C588.342 146.104 583.448 148.901 577.156 150.399V151.298C585.745 152.397 592.437 155.393 597.231 160.287C602.125 165.081 604.572 171.173 604.572 178.564C604.572 187.253 601.226 194.045 594.534 198.938C587.843 203.832 578.454 206.279 566.37 206.279H542.1ZM563.074 105.006H552.287V149.95H562.924C578.704 149.95 586.594 142.459 586.594 127.478C586.594 112.496 578.754 105.006 563.074 105.006ZM566.37 153.545H552.287V202.684H566.37C584.647 202.684 593.785 194.494 593.785 178.114C593.785 161.735 584.647 153.545 566.37 153.545Z" fill="black"/>
<path d="M663.027 206.279V101.41H708.72V108.751L682.503 105.305C677.908 104.706 674.812 104.407 673.214 104.407V150.099C674.513 150.099 677.609 149.95 682.503 149.65L707.072 148.152V155.043L682.503 153.545C677.609 153.246 674.513 153.096 673.214 153.096V203.283C675.012 203.283 678.158 202.983 682.652 202.384L709.169 198.938V206.279H663.027Z" fill="black"/>
<path d="M779.218 101.41H769.031V206.279H813.076V198.639L788.207 202.384C784.112 202.983 781.116 203.283 779.218 203.283V101.41Z" fill="black"/>
<path d="M866.55 101.41H876.737V203.283C878.635 203.283 881.631 202.983 885.726 202.384L910.595 198.639V206.279H866.55V101.41Z" fill="black"/>
<path fill-rule="evenodd" clip-rule="evenodd" d="M542.1 381.56V276.691H575.059C586.644 276.691 596.732 278.888 605.321 283.283C613.91 287.677 620.602 293.82 625.396 301.71C630.19 309.5 632.587 318.639 632.587 329.126C632.587 339.613 630.19 348.801 625.396 356.691C620.602 364.481 613.91 370.574 605.321 374.968C596.732 379.363 586.644 381.56 575.059 381.56H542.1ZM575.059 280.287H552.287V377.965H575.059C589.541 377.965 600.826 373.67 608.916 365.081C617.106 356.491 621.201 344.506 621.201 329.126C621.201 313.745 617.106 301.76 608.916 293.171C600.826 284.581 589.541 280.287 575.059 280.287Z" fill="black"/>
<path d="M702.767 276.691H692.58V381.56H702.767V276.691Z" fill="black"/>
<path fill-rule="evenodd" clip-rule="evenodd" d="M794.921 276.691H804.209L844.509 381.56H833.572L814.995 332.422H780.988L765.557 381.56H754.621L794.921 276.691ZM795.969 284.481L782.037 328.826H813.647L796.868 284.481H795.969Z" fill="black"/>
<path d="M985.812 381.56H996V276.691H985.213L949.857 344.706H948.959L901.768 274.594H898.771L895.026 381.56H905.213L901.917 293.62H902.816L944.015 354.893H948.659L984.914 285.38H985.812V381.56Z" fill="black"/>
<path fill-rule="evenodd" clip-rule="evenodd" d="M1055.92 329.126C1055.92 321.435 1057.27 314.294 1059.96 307.702C1062.76 301.011 1066.6 295.218 1071.5 290.324C1076.49 285.33 1082.28 281.485 1088.88 278.789C1095.57 275.992 1102.76 274.594 1110.45 274.594C1118.14 274.594 1125.28 275.992 1131.87 278.789C1138.56 281.485 1144.36 285.33 1149.25 290.324C1154.24 295.218 1158.09 301.011 1160.79 307.702C1163.58 314.294 1164.98 321.435 1164.98 329.126C1164.98 336.816 1163.58 344.007 1160.79 350.699C1158.09 357.29 1154.24 363.083 1149.25 368.077C1144.36 372.971 1138.56 376.816 1131.87 379.613C1125.28 382.309 1118.14 383.658 1110.45 383.658C1102.76 383.658 1095.57 382.309 1088.88 379.613C1082.28 376.816 1076.49 372.971 1071.5 368.077C1066.6 363.083 1062.76 357.29 1059.96 350.699C1057.27 344.007 1055.92 336.816 1055.92 329.126ZM1067.3 329.126C1067.3 339.313 1069.1 348.252 1072.7 355.942C1076.29 363.533 1081.33 369.475 1087.83 373.77C1094.32 377.965 1101.86 380.062 1110.45 380.062C1119.04 380.062 1126.58 377.965 1133.07 373.77C1139.56 369.475 1144.61 363.483 1148.2 355.792C1151.8 348.102 1153.59 339.213 1153.59 329.126C1153.59 319.038 1151.8 310.199 1148.2 302.609C1144.61 294.918 1139.56 288.926 1133.07 284.631C1126.58 280.337 1119.04 278.189 1110.45 278.189C1101.86 278.189 1094.32 280.337 1087.83 284.631C1081.43 288.826 1076.39 294.769 1072.7 302.459C1069.1 310.05 1067.3 318.938 1067.3 329.126Z" fill="black"/>
<path d="M1226.36 274.594L1222.61 381.56H1232.8L1229.5 292.571H1230.4L1305.76 383.658H1307.56L1311.3 276.691H1301.11L1304.41 365.68H1303.51L1228.16 274.594H1226.36Z" fill="black"/>
<path fill-rule="evenodd" clip-rule="evenodd" d="M1376.51 276.691H1409.47C1421.05 276.691 1431.14 278.888 1439.73 283.283C1448.32 287.677 1455.01 293.82 1459.81 301.71C1464.6 309.5 1467 318.639 1467 329.126C1467 339.613 1464.6 348.801 1459.81 356.691C1455.01 364.481 1448.32 370.574 1439.73 374.968C1431.14 379.363 1421.05 381.56 1409.47 381.56H1376.51V276.691ZM1409.47 280.287H1386.7V377.965H1409.47C1423.95 377.965 1435.24 373.67 1443.33 365.081C1451.52 356.491 1455.61 344.506 1455.61 329.126C1455.61 313.745 1451.52 301.76 1443.33 293.171C1435.24 284.581 1423.95 280.287 1409.47 280.287Z" fill="black"/>
<path d="M1519.65 369.275H1518.75L1517.85 378.264C1522.75 379.862 1527.89 381.161 1533.28 382.159C1538.68 383.158 1543.37 383.658 1547.36 383.658C1553.66 383.658 1559.15 382.459 1563.84 380.062C1568.64 377.665 1572.33 374.369 1574.93 370.174C1577.53 365.88 1578.82 360.936 1578.82 355.343C1578.82 349.251 1577.43 344.207 1574.63 340.212C1571.93 336.117 1568.44 332.621 1564.14 329.725C1559.95 326.829 1555.6 324.082 1551.11 321.485C1547.21 319.288 1543.57 317.041 1540.17 314.744C1536.78 312.347 1533.98 309.7 1531.78 306.804C1529.69 303.807 1528.64 300.262 1528.64 296.167C1528.64 290.674 1530.59 286.329 1534.48 283.133C1538.38 279.837 1543.52 278.189 1549.91 278.189C1558.8 278.189 1566.09 281.285 1571.78 287.478H1572.68L1573.43 279.088C1570.93 277.79 1567.39 276.741 1562.8 275.942C1558.2 275.043 1553.91 274.594 1549.91 274.594C1540.92 274.594 1533.68 276.941 1528.19 281.635C1522.7 286.229 1519.95 292.322 1519.95 299.912C1519.95 305.006 1521.2 309.4 1523.69 313.096C1526.19 316.691 1529.39 319.887 1533.28 322.684C1537.18 325.38 1541.27 327.977 1545.57 330.474C1551.76 334.069 1556.6 337.415 1560.1 340.511C1563.69 343.608 1566.24 346.654 1567.74 349.65C1569.34 352.646 1570.14 355.892 1570.14 359.388C1570.14 365.68 1568.04 370.724 1563.84 374.519C1559.65 378.214 1554.16 380.062 1547.36 380.062C1542.57 380.062 1537.73 379.113 1532.83 377.216C1527.94 375.318 1523.54 372.671 1519.65 369.275Z" fill="black"/>
</svg>
