<svg width="160" height="51" viewBox="0 0 160 51" fill="none" xmlns="http://www.w3.org/2000/svg">
<path fill-rule="evenodd" clip-rule="evenodd" d="M30.484 45.8468H4L4.13819 5.66357H18.0066C25.2995 5.66357 28.6803 9.06052 28.8559 12.4517H28.9935C40.843 12.4517 48.3955 20.4296 48.5538 28.5921C48.7119 36.7461 41.4893 45.086 30.484 45.8468ZM13.277 39.6825V38.7543H13.2768L13.1869 12.4517H24.786C24.3497 9.42693 21.7632 6.42311 16.1347 6.42311L10.7019 6.433C10.6501 17.8012 10.6231 33.1281 10.6216 44.7423H26.0538C36.2057 44.3053 42.8758 36.366 42.8109 28.5877C42.7527 21.5951 37.2142 14.7331 28.7977 13.5682C28.4485 15.8035 26.7055 17.868 23.7781 18.7483C33.1326 19.1147 36.3795 24.2594 36.3795 28.855C36.3795 35.4807 32.0237 39.6825 21.5879 39.6825H13.277ZM21.1094 18.5525C23.4345 18.1686 24.851 15.8811 24.8526 13.3944L19.8247 13.3949L19.9071 33.7306V38.7528C26.7139 38.6407 30.5015 34.2675 30.5015 28.9083C30.5013 24.2351 28.1673 19.7398 21.1501 19.6079L21.1094 18.5525Z" fill="white"/>
<path fill-rule="evenodd" clip-rule="evenodd" d="M96.1692 18.4071C95.9089 19.0432 95.7788 19.7323 95.7788 20.4744C95.7788 21.2166 95.9089 21.9105 96.1692 22.5563C96.439 23.1924 96.8101 23.7514 97.2824 24.2333C97.7643 24.7056 98.3233 25.0766 98.9594 25.3465C99.6052 25.6067 100.299 25.7369 101.041 25.7369C101.783 25.7369 102.473 25.6067 103.109 25.3465C103.754 25.0766 104.313 24.7056 104.786 24.2333C105.268 23.7514 105.639 23.1924 105.899 22.5563C106.169 21.9105 106.304 21.2166 106.304 20.4744C106.304 19.7323 106.169 19.0432 105.899 18.4071C105.639 17.7613 105.268 17.2023 104.786 16.73C104.313 16.2481 103.754 15.877 103.109 15.6168C102.473 15.347 101.783 15.212 101.041 15.212C100.299 15.212 99.6052 15.347 98.9594 15.6168C98.3233 15.877 97.7643 16.2481 97.2824 16.73C96.8101 17.2023 96.439 17.7613 96.1692 18.4071ZM97.398 23.0623C97.0511 22.3201 96.8776 21.4575 96.8776 20.4744C96.8776 19.4913 97.0511 18.6336 97.398 17.9011C97.7546 17.1589 98.2414 16.5855 98.8582 16.1807C99.4847 15.7662 100.212 15.559 101.041 15.559C101.87 15.559 102.598 15.7662 103.224 16.1807C103.851 16.5951 104.337 17.1734 104.684 17.9155C105.031 18.648 105.205 19.501 105.205 20.4744C105.205 21.4479 105.031 22.3057 104.684 23.0478C104.337 23.79 103.851 24.3682 103.224 24.7827C102.598 25.1875 101.87 25.3899 101.041 25.3899C100.212 25.3899 99.4847 25.1875 98.8582 24.7827C98.2317 24.3682 97.745 23.7948 97.398 23.0623Z" fill="white"/>
<path fill-rule="evenodd" clip-rule="evenodd" d="M56.2186 25.5345V15.4144H58.2282C59.2691 15.4144 60.0787 15.6313 60.657 16.065C61.2353 16.4987 61.5244 17.1011 61.5244 17.8721C61.5244 18.4408 61.3557 18.9275 61.0184 19.3323C60.6811 19.7275 60.2088 19.9974 59.6016 20.1419V20.2287C60.4305 20.3347 61.0762 20.6238 61.5389 21.0961C62.0111 21.5587 62.2473 22.1467 62.2473 22.8599C62.2473 23.6984 61.9244 24.3538 61.2786 24.8261C60.6329 25.2983 59.7269 25.5345 58.5607 25.5345H56.2186ZM58.2426 15.7614H57.2017V20.0986H58.2282C59.751 20.0986 60.5124 19.3757 60.5124 17.93C60.5124 16.4843 59.7558 15.7614 58.2426 15.7614ZM58.5607 20.4455H57.2017V25.1875H58.5607C60.3245 25.1875 61.2064 24.3972 61.2064 22.8165C61.2064 21.2359 60.3245 20.4455 58.5607 20.4455Z" fill="white"/>
<path d="M67.8883 25.5345V15.4144H72.2977V16.1228L69.7677 15.7903C69.3244 15.7325 69.0256 15.7036 68.8714 15.7036V20.113C68.9967 20.113 69.2955 20.0986 69.7677 20.0696L72.1387 19.9251V20.5901L69.7677 20.4455C69.2955 20.4166 68.9967 20.4022 68.8714 20.4022V25.2453C69.0449 25.2453 69.3485 25.2164 69.7822 25.1586L72.3411 24.8261V25.5345H67.8883Z" fill="white"/>
<path d="M79.101 15.4144H78.1179V25.5345H82.3683V24.7971L79.9684 25.1586C79.5732 25.2164 79.2841 25.2453 79.101 25.2453V15.4144Z" fill="white"/>
<path d="M87.5286 15.4144H88.5117V25.2453C88.6948 25.2453 88.984 25.2164 89.3792 25.1586L91.779 24.7971V25.5345H87.5286V15.4144Z" fill="white"/>
<path fill-rule="evenodd" clip-rule="evenodd" d="M56.2186 42.4494V32.3293H59.3992C60.5172 32.3293 61.4907 32.5414 62.3196 32.9655C63.1484 33.3895 63.7942 33.9823 64.2568 34.7437C64.7195 35.4955 64.9508 36.3774 64.9508 37.3894C64.9508 38.4014 64.7195 39.2881 64.2568 40.0495C63.7942 40.8013 63.1484 41.3892 62.3196 41.8133C61.4907 42.2373 60.5172 42.4494 59.3992 42.4494H56.2186ZM59.3992 32.6763H57.2017V42.1024H59.3992C60.7967 42.1024 61.8858 41.688 62.6665 40.8591C63.4569 40.0302 63.852 38.8736 63.852 37.3894C63.852 35.9051 63.4569 34.7485 62.6665 33.9196C61.8858 33.0908 60.7967 32.6763 59.3992 32.6763Z" fill="white"/>
<path d="M71.7233 32.3293H70.7402V42.4494H71.7233V32.3293Z" fill="white"/>
<path fill-rule="evenodd" clip-rule="evenodd" d="M80.6163 32.3293H81.5126L85.4016 42.4494H84.3462L82.5535 37.7074H79.2718L77.7827 42.4494H76.7273L80.6163 32.3293ZM80.7175 33.0811L79.373 37.3604H82.4234L80.8042 33.0811H80.7175Z" fill="white"/>
<path d="M99.0377 42.4494H100.021V32.3293H98.9799L95.568 38.8929H95.4812L90.9272 32.1269H90.6381L90.2766 42.4494H91.2597L90.9417 33.963H91.0284L95.0041 39.876H95.4523L98.9509 33.1679H99.0377V42.4494Z" fill="white"/>
<path fill-rule="evenodd" clip-rule="evenodd" d="M105.803 37.3894C105.803 36.6472 105.933 35.9581 106.193 35.322C106.463 34.6762 106.834 34.1172 107.306 33.6449C107.788 33.163 108.347 32.792 108.983 32.5317C109.629 32.2619 110.323 32.1269 111.065 32.1269C111.807 32.1269 112.497 32.2619 113.133 32.5317C113.778 32.792 114.337 33.163 114.81 33.6449C115.292 34.1172 115.663 34.6762 115.923 35.322C116.193 35.9581 116.328 36.6472 116.328 37.3894C116.328 38.1315 116.193 38.8254 115.923 39.4712C115.663 40.1073 115.292 40.6663 114.81 41.1482C114.337 41.6205 113.778 41.9916 113.133 42.2614C112.497 42.5217 111.807 42.6518 111.065 42.6518C110.323 42.6518 109.629 42.5217 108.983 42.2614C108.347 41.9916 107.788 41.6205 107.306 41.1482C106.834 40.6663 106.463 40.1073 106.193 39.4712C105.933 38.8254 105.803 38.1315 105.803 37.3894ZM106.902 37.3894C106.902 38.3725 107.075 39.2351 107.422 39.9772C107.769 40.7097 108.256 41.2832 108.882 41.6976C109.509 42.1024 110.236 42.3048 111.065 42.3048C111.894 42.3048 112.622 42.1024 113.248 41.6976C113.875 41.2832 114.362 40.7049 114.708 39.9627C115.055 39.2206 115.229 38.3628 115.229 37.3894C115.229 36.4159 115.055 35.5629 114.708 34.8304C114.362 34.0883 113.875 33.51 113.248 33.0956C112.622 32.6811 111.894 32.4739 111.065 32.4739C110.236 32.4739 109.509 32.6811 108.882 33.0956C108.265 33.5004 107.779 34.0738 107.422 34.816C107.075 35.5485 106.902 36.4063 106.902 37.3894Z" fill="white"/>
<path d="M122.251 32.1269L121.889 42.4494H122.872L122.554 33.8618H122.641L129.913 42.6518H130.087L130.448 32.3293H129.465L129.783 40.9169H129.696L122.424 32.1269H122.251Z" fill="white"/>
<path fill-rule="evenodd" clip-rule="evenodd" d="M136.741 32.3293H139.921C141.039 32.3293 142.013 32.5414 142.842 32.9655C143.671 33.3895 144.316 33.9823 144.779 34.7437C145.242 35.4955 145.473 36.3774 145.473 37.3894C145.473 38.4014 145.242 39.2881 144.779 40.0495C144.316 40.8013 143.671 41.3892 142.842 41.8133C142.013 42.2373 141.039 42.4494 139.921 42.4494H136.741V32.3293ZM139.921 32.6763H137.724V42.1024H139.921C141.319 42.1024 142.408 41.688 143.189 40.8591C143.979 40.0302 144.374 38.8736 144.374 37.3894C144.374 35.9051 143.979 34.7485 143.189 33.9196C142.408 33.0908 141.319 32.6763 139.921 32.6763Z" fill="white"/>
<path d="M150.554 41.2639H150.467L150.38 42.1313C150.853 42.2855 151.349 42.4108 151.869 42.5072C152.39 42.6036 152.843 42.6518 153.228 42.6518C153.836 42.6518 154.366 42.5361 154.819 42.3048C155.281 42.0735 155.638 41.7554 155.889 41.3506C156.139 40.9362 156.264 40.4591 156.264 39.9194C156.264 39.3314 156.13 38.8447 155.86 38.4592C155.599 38.064 155.262 37.7267 154.848 37.4472C154.443 37.1677 154.024 36.9026 153.59 36.652C153.214 36.44 152.862 36.2232 152.535 36.0015C152.207 35.7702 151.937 35.5147 151.725 35.2352C151.523 34.9461 151.421 34.6039 151.421 34.2088C151.421 33.6787 151.609 33.2594 151.985 32.951C152.361 32.6329 152.857 32.4739 153.474 32.4739C154.332 32.4739 155.036 32.7727 155.585 33.3703H155.672L155.744 32.5607C155.503 32.4354 155.161 32.3342 154.718 32.2571C154.274 32.1703 153.86 32.1269 153.474 32.1269C152.607 32.1269 151.908 32.3534 151.378 32.8064C150.848 33.2498 150.583 33.8377 150.583 34.5702C150.583 35.0618 150.703 35.4858 150.944 35.8424C151.185 36.1894 151.494 36.4978 151.869 36.7677C152.245 37.0279 152.641 37.2785 153.055 37.5195C153.653 37.8665 154.12 38.1893 154.457 38.4881C154.804 38.7869 155.05 39.0809 155.195 39.37C155.349 39.6591 155.426 39.9724 155.426 40.3097C155.426 40.9169 155.224 41.4036 154.819 41.7699C154.414 42.1265 153.884 42.3048 153.228 42.3048C152.766 42.3048 152.298 42.2132 151.826 42.0301C151.354 41.847 150.93 41.5916 150.554 41.2639Z" fill="white"/>
</svg>
