<svg width="35" height="31" viewBox="0 0 35 31" fill="none" xmlns="http://www.w3.org/2000/svg">
<path fill-rule="evenodd" clip-rule="evenodd" d="M20.8038 31H0L0.108549 0H11.0025C16.7313 0 19.3869 2.62063 19.5249 5.2368H19.6329C28.941 5.2368 34.8736 11.3915 34.998 17.6886C35.1222 23.9791 29.4487 30.413 20.8038 31ZM7.28727 26.2444V25.5284L7.21654 5.2368H16.3279C15.9851 2.9033 13.9534 0.585952 9.53207 0.585952L5.26448 0.593585C5.22381 9.36379 5.20256 21.1879 5.2014 30.1479H17.3237C25.2983 29.8108 30.5378 23.6859 30.4869 17.6852C30.4412 12.2906 26.0905 6.99682 19.4792 6.09818C19.2048 7.82258 17.8357 9.41531 15.5362 10.0944C22.8843 10.3771 25.4348 14.346 25.4348 17.8914C25.4348 23.0029 22.0132 26.2444 13.8157 26.2444H7.28727ZM13.4398 9.94338C15.2662 9.64722 16.3789 7.88249 16.3802 5.96409L12.4306 5.96447L12.4954 21.6528V25.5272C17.8423 25.4407 20.8175 22.067 20.8175 17.9325C20.8174 14.3273 18.984 10.8593 13.4718 10.7576L13.4398 9.94338Z" fill="#09090A"/>
</svg>
