<svg width="18" height="20" viewBox="0 0 18 20" fill="none" xmlns="http://www.w3.org/2000/svg">
<path d="M17.2008 8.1C17.2008 8.32 17.0208 8.501 16.8008 8.49C15.6253 8.43107 14.4774 8.11352 13.4388 7.56C13.1578 7.41 12.8008 7.605 12.8008 7.924V13.5C12.8007 14.6696 12.4588 15.8137 11.8171 16.7916C11.1753 17.7695 10.2618 18.5385 9.18878 19.004C8.11577 19.4695 6.9301 19.6112 5.7776 19.4118C4.6251 19.2123 3.55603 18.6803 2.70187 17.8813C1.84772 17.0823 1.24573 16.051 0.969949 14.9144C0.694169 13.7777 0.756623 12.5852 1.14963 11.4836C1.54264 10.382 2.24906 9.41923 3.18201 8.71379C4.11496 8.00835 5.23375 7.59098 6.40078 7.513C6.45294 7.51024 6.5051 7.51826 6.55401 7.53656C6.60293 7.55486 6.64755 7.58305 6.68508 7.61937C6.72262 7.65568 6.75226 7.69934 6.77217 7.74763C6.79208 7.79591 6.80182 7.84778 6.80078 7.9V10.7C6.80078 10.92 6.62078 11.097 6.40278 11.133C5.95147 11.2089 5.53126 11.4122 5.1917 11.7191C4.85215 12.0259 4.6074 12.4234 4.48631 12.8648C4.36522 13.3061 4.37285 13.7729 4.50829 14.21C4.64372 14.6472 4.90133 15.0365 5.25073 15.3321C5.60012 15.6276 6.02675 15.8172 6.4803 15.8783C6.93385 15.9394 7.39542 15.8695 7.81059 15.677C8.22576 15.4844 8.57722 15.1772 8.82353 14.7915C9.06984 14.4057 9.20074 13.9577 9.20078 13.5V0.9C9.20078 0.793913 9.24293 0.692172 9.31794 0.617157C9.39295 0.542143 9.4947 0.5 9.60078 0.5H12.4008C12.5077 0.502727 12.6098 0.545223 12.6871 0.619189C12.7644 0.693154 12.8114 0.793276 12.8188 0.9C12.9123 1.92472 13.362 2.88426 14.0897 3.61177C14.8174 4.33928 15.777 4.78874 16.8018 4.882C17.0218 4.902 17.2018 5.079 17.2018 5.3L17.2008 8.1Z" stroke="white" stroke-linecap="round" stroke-linejoin="round"/>
</svg>
